<svg version="1.1" id="Layer_1" xmlns="http://www.w3.org/2000/svg" xmlns:xlink="http://www.w3.org/1999/xlink" x="0px" y="0px"
	 width="100%" viewBox="0 0 4753 1329" enable-background="new 0 0 4753 1329" xml:space="preserve">
<path fill="#FEFEFE" opacity="1.000000" stroke="none" 
	d="
M3462.000000,1332.000000 
	C2308.000000,1332.000000 1155.000000,1332.000000 2.000000,1332.000000 
	C2.000000,888.666687 2.000000,445.333344 2.000000,2.000000 
	C1586.666626,2.000000 3171.333252,2.000000 4756.000000,2.000000 
	C4756.000000,445.333344 4756.000000,888.666687 4756.000000,1332.000000 
	C4325.000000,1332.000000 3894.000000,1332.000000 3462.000000,1332.000000 
M3440.148193,592.870361 
	C3440.565674,625.835938 3441.129150,658.800476 3441.364014,691.767334 
	C3441.660645,733.417175 3441.690674,775.068909 3441.832031,816.719788 
	C3441.845215,820.616516 3441.833496,824.513367 3441.833496,828.742432 
	C3481.939697,828.742432 3520.754883,828.742432 3559.363281,828.742432 
	C3559.363281,677.036621 3559.363281,525.896240 3559.363281,374.264160 
	C3523.204834,374.264160 3488.016602,374.264160 3452.650879,374.264160 
	C3400.932129,461.301422 3349.277588,548.230896 3297.065918,636.097595 
	C3243.429443,548.035034 3190.450928,461.052582 3137.702393,374.447937 
	C3101.949951,374.447937 3066.810547,374.447937 3031.626465,374.447937 
	C3031.626465,526.244202 3031.626465,677.360657 3031.626465,828.591370 
	C3071.404785,828.591370 3110.511230,828.591370 3149.399902,828.591370 
	C3149.704834,827.558044 3149.807373,827.240662 3149.891357,826.918335 
	C3149.974609,826.597961 3150.102539,826.272705 3150.102783,825.949585 
	C3150.132812,751.638489 3150.152100,677.327454 3150.179688,603.016357 
	C3150.180176,601.686768 3150.248047,600.355469 3150.344238,599.029358 
	C3150.360596,598.803833 3150.642090,598.521606 3150.871826,598.407227 
	C3151.138916,598.274048 3151.483887,598.296997 3152.316650,598.176941 
	C3190.288330,660.083740 3228.370605,722.170715 3266.094482,783.673218 
	C3286.083008,783.673218 3304.998291,783.673218 3323.976074,783.673218 
	C3325.707520,780.864075 3327.303467,778.346558 3328.830322,775.787659 
	C3345.208008,748.340515 3361.540771,720.866394 3377.953857,693.440369 
	C3398.125000,659.733765 3418.360840,626.065979 3440.148193,592.870361 
M446.335754,709.000061 
	C446.335754,669.224121 446.335754,629.448181 446.335754,587.243347 
	C450.185883,591.661011 452.357056,594.046143 454.413116,596.526794 
	C516.720459,671.701294 579.023804,746.879089 641.294434,822.083984 
	C644.738525,826.243469 647.809753,829.600220 654.319031,829.505615 
	C684.976257,829.059814 715.643555,829.327393 746.307129,829.265198 
	C748.508545,829.260742 750.708862,828.654114 752.691650,828.359802 
	C752.691650,676.581177 752.691650,525.451782 752.691650,374.508118 
	C710.512939,374.508118 669.060242,374.508118 626.504883,374.508118 
	C626.504883,454.173492 626.505310,533.102478 626.479980,612.031433 
	C626.479919,612.244568 626.137573,612.528198 625.891357,612.652161 
	C625.604309,612.796631 625.247009,612.801392 624.658020,612.919128 
	C623.245239,611.270996 621.721313,609.544556 620.252625,607.772339 
	C557.312500,531.823425 494.350281,455.892792 431.514893,379.857300 
	C428.082458,375.703827 424.714783,373.569397 419.024200,373.625946 
	C388.363556,373.930725 357.698242,373.754395 327.034668,373.805054 
	C324.839722,373.808655 322.645569,374.299713 320.691223,374.535187 
	C320.691223,526.323425 320.691223,677.437195 320.691223,828.607544 
	C362.845032,828.607544 404.300995,828.607544 446.335785,828.607544 
	C446.335785,788.940430 446.335785,749.970276 446.335754,709.000061 
M2160.146240,406.820190 
	C2149.971924,401.162354 2140.120605,394.799377 2129.570068,389.962372 
	C2066.479248,361.038086 2000.879883,356.907928 1934.422852,374.345642 
	C1819.368164,404.534882 1739.615967,507.674500 1760.843872,642.093262 
	C1772.750000,717.485107 1814.778809,773.054565 1882.351440,808.166809 
	C1948.394043,842.483948 2018.379639,846.927612 2089.269043,827.623413 
	C2203.096680,796.626465 2277.904541,695.365173 2261.347900,567.790894 
	C2252.500977,499.621460 2218.233887,446.320557 2160.146240,406.820190 
M1490.999756,829.309753 
	C1563.867920,829.309753 1636.736206,829.309753 1709.629150,829.309753 
	C1709.629150,795.406921 1709.629150,762.877258 1709.629150,729.227295 
	C1630.309814,729.227295 1551.526978,729.227295 1472.862549,729.227295 
	C1471.097046,710.235168 1471.781982,653.700806 1473.932129,646.071350 
	C1540.293457,646.071350 1606.846191,646.071350 1673.299805,646.071350 
	C1675.205688,632.442383 1674.728516,557.259216 1672.602539,549.621765 
	C1606.244385,549.621765 1539.696777,549.621765 1472.683838,549.621765 
	C1472.683838,524.145569 1472.683838,499.341675 1472.683838,473.574310 
	C1484.093384,473.574310 1495.009766,473.574310 1505.926270,473.574310 
	C1516.592896,473.574310 1527.259399,473.574310 1537.926025,473.574310 
	C1548.925903,473.574310 1559.925903,473.574310 1570.925781,473.574310 
	C1581.925659,473.574310 1592.925659,473.574310 1603.925537,473.574310 
	C1614.925415,473.574310 1625.925415,473.574310 1636.925293,473.574310 
	C1647.591919,473.574310 1658.258667,473.621613 1668.924927,473.561096 
	C1679.768555,473.499573 1690.636475,473.830719 1701.197632,473.355377 
	C1701.197632,439.428040 1701.197632,406.908966 1701.197632,374.464905 
	C1682.219360,372.576874 1352.448364,373.385010 1345.228638,375.271698 
	C1343.279785,395.651398 1344.138428,821.389465 1346.340576,829.309631 
	C1393.759521,829.309631 1441.379639,829.309631 1490.999756,829.309753 
M900.004761,779.017395 
	C932.572693,806.321533 969.853210,823.724854 1011.418579,832.217468 
	C1054.497803,841.019348 1097.547974,839.816772 1140.436523,831.328735 
	C1181.605347,823.181152 1220.370972,808.725891 1255.664795,785.544556 
	C1260.911377,782.098389 1263.247192,778.535461 1263.210693,771.907104 
	C1262.896484,714.923279 1263.036011,657.936951 1263.009277,600.951416 
	C1263.007812,598.045166 1262.723633,595.139099 1262.577881,592.361084 
	C1246.722290,590.523804 1156.514526,591.209595 1148.881348,593.323853 
	C1148.881348,634.031677 1148.881348,674.942261 1148.881348,716.237427 
	C1145.422607,717.711548 1142.449585,719.085754 1139.400146,720.261536 
	C1114.385742,729.906311 1088.531738,733.297424 1061.913940,730.152344 
	C1020.141174,725.216675 987.478577,705.560974 967.280029,668.239075 
	C946.785522,630.370483 945.981079,590.315674 959.480286,550.145447 
	C970.234558,518.143433 992.075989,494.858215 1023.348450,482.555511 
	C1070.153931,464.142090 1116.085327,467.157776 1159.005371,494.676971 
	C1170.673096,502.157959 1180.817871,512.014099 1192.385986,521.365723 
	C1218.757568,497.510040 1245.845459,473.006378 1273.548950,447.945923 
	C1269.887939,443.861176 1266.926147,440.352600 1263.752197,437.047913 
	C1241.009644,413.368774 1214.225952,395.624573 1183.598267,383.999817 
	C1123.556030,361.210754 1062.126221,358.605286 1000.009277,373.629303 
	C951.158325,385.444702 909.082520,409.485840 876.001038,447.724152 
	C833.935303,496.347229 817.570190,553.601074 821.215149,617.130920 
	C824.907166,681.480408 850.511169,735.304993 900.004761,779.017395 
M2313.879639,659.065063 
	C2332.886719,734.825867 2379.017090,787.651794 2450.568115,817.704895 
	C2507.331543,841.546875 2566.363770,843.817200 2626.037109,830.564270 
	C2674.562744,819.787048 2715.948975,796.334045 2748.651367,758.411255 
	C2750.299072,756.500610 2751.699219,754.376282 2753.538086,751.919128 
	C2725.952148,726.967957 2698.919922,702.517822 2671.747559,677.940796 
	C2669.540771,680.408081 2668.215332,681.895874 2666.883545,683.377930 
	C2634.602783,719.302429 2594.759766,736.076843 2546.376953,730.063232 
	C2500.028076,724.302551 2466.375488,700.694885 2448.114990,657.115234 
	C2436.583984,629.595337 2434.950684,600.708496 2440.463867,571.719727 
	C2447.769775,533.305237 2467.646729,503.260895 2503.285645,485.338898 
	C2548.012695,462.846741 2614.598145,463.816437 2661.916748,514.064453 
	C2665.070068,517.413086 2668.225098,520.760193 2671.917236,524.678711 
	C2699.311768,499.887115 2726.342285,475.424957 2753.791260,450.584076 
	C2750.610107,446.786682 2748.154053,443.674255 2745.511475,440.729248 
	C2721.461182,413.925720 2692.403809,394.386810 2658.693604,381.961121 
	C2605.057373,362.190674 2550.120361,359.652588 2494.470459,371.284180 
	C2449.455322,380.692932 2409.404785,400.543091 2376.688965,433.051453 
	C2313.580322,495.759308 2297.018066,572.055115 2313.879639,659.065063 
M4383.527832,712.642273 
	C4356.180176,729.264404 4326.416016,734.328491 4295.130371,729.822693 
	C4252.668945,723.707336 4220.786133,702.188721 4201.979492,662.914368 
	C4191.051758,640.093445 4188.348633,615.808899 4189.636230,590.831238 
	C4193.771484,510.595947 4257.827637,461.286896 4338.017578,473.400360 
	C4369.706055,478.187256 4395.120605,494.375854 4416.576172,517.513855 
	C4418.734375,519.841431 4421.037109,522.034607 4423.501953,524.520874 
	C4450.961426,499.655853 4477.813477,475.340302 4504.979980,450.740326 
	C4502.883789,448.032867 4501.367188,445.890717 4499.667480,443.906189 
	C4476.675293,417.066467 4448.566895,397.225342 4415.849121,384.207642 
	C4360.669922,362.252899 4303.775879,359.233734 4246.039062,371.252289 
	C4198.220703,381.206085 4156.274414,402.979858 4122.518066,438.563263 
	C4066.159424,497.973145 4048.954346,569.573792 4063.415039,648.430176 
	C4078.379639,730.035583 4126.918457,786.344788 4203.094727,818.109436 
	C4259.611328,841.676331 4318.335449,843.673035 4377.663574,830.512878 
	C4425.161621,819.976929 4465.776367,797.093750 4498.263184,760.479187 
	C4500.594727,757.851624 4502.693848,755.017944 4505.085938,752.050903 
	C4477.312988,726.935974 4450.401367,702.599731 4423.092773,677.904785 
	C4411.680176,691.302979 4399.328613,702.873169 4383.527832,712.642273 
M3766.160889,669.794983 
	C3766.160889,722.648682 3766.160889,775.502380 3766.160889,828.615173 
	C3809.730713,828.615173 3852.161865,828.615173 3895.414307,828.615173 
	C3895.414307,824.340271 3895.414307,820.734863 3895.414307,817.129456 
	C3895.414551,770.486816 3895.564941,723.843201 3895.271240,677.202393 
	C3895.220947,669.192078 3897.170166,662.495117 3901.262939,655.665344 
	C3955.502686,565.153198 4009.536133,474.517426 4063.602783,383.901581 
	C4065.372070,380.936493 4066.944824,377.854095 4069.024414,374.070801 
	C4026.484131,374.070801 3985.556152,374.070801 3944.257080,374.070801 
	C3908.592529,433.760925 3872.962158,493.393280 3836.656738,554.156006 
	C3800.412842,493.492065 3764.775391,433.842957 3729.222412,374.335327 
	C3684.016113,374.335327 3639.249756,374.335327 3593.129150,374.335327 
	C3596.169922,379.540070 3598.597168,383.782349 3601.106445,387.975372 
	C3654.782227,477.662323 3708.486816,567.332153 3762.070557,657.074036 
	C3764.032227,660.359253 3764.822510,664.343750 3766.160889,669.794983 
M2810.580078,766.999817 
	C2810.580078,787.513245 2810.580078,808.026672 2810.580078,828.320190 
	C2825.792236,830.264954 2932.464844,829.660767 2939.195312,827.827759 
	C2939.195312,676.649170 2939.195312,525.514038 2939.195312,374.510559 
	C2896.101318,374.510559 2853.664307,374.510559 2810.580078,374.510559 
	C2810.580078,505.171295 2810.580078,635.085510 2810.580078,766.999817 
M228.596939,519.000183 
	C228.596939,470.814758 228.596939,422.629333 228.596939,374.235748 
	C185.151367,374.235748 142.974777,374.235748 100.317566,374.235748 
	C100.317566,525.858582 100.317566,677.018738 100.317566,828.589417 
	C143.082657,828.589417 185.496445,828.589417 228.597031,828.589417 
	C228.597031,725.585449 228.597031,623.292847 228.596939,519.000183 
M387.025208,1088.298218 
	C403.992279,1088.237793 420.972198,1088.542603 437.920319,1087.944702 
	C445.121307,1087.690552 452.488831,1086.281738 459.370575,1084.102539 
	C472.794586,1079.851685 481.590881,1070.970093 482.869232,1056.248901 
	C484.163849,1041.341064 479.126007,1029.501587 465.573578,1022.017334 
	C464.142273,1021.226929 462.802521,1020.270630 461.198334,1019.250061 
	C462.439117,1018.151733 463.433411,1017.296570 464.400604,1016.411804 
	C484.688110,997.853821 479.132111,968.838379 453.235657,960.025879 
	C446.126312,957.606628 438.327026,956.434814 430.795868,956.191650 
	C413.180054,955.622681 395.534882,955.962463 377.901581,955.936829 
	C374.013580,955.931213 370.125580,955.935974 366.378906,955.935974 
	C366.378906,1000.696594 366.378906,1044.370117 366.378906,1088.298218 
	C373.088867,1088.298218 379.063263,1088.298218 387.025208,1088.298218 
M2759.796143,1046.999878 
	C2759.796143,1060.550171 2759.796143,1074.100342 2759.796143,1087.850464 
	C2768.372314,1087.850464 2775.872314,1087.850464 2784.441895,1087.850464 
	C2784.441895,1059.040039 2784.441895,1030.668579 2784.441895,1002.297058 
	C2785.035645,1002.112366 2785.629395,1001.927673 2786.223389,1001.743042 
	C2809.712646,1030.555664 2833.202148,1059.368408 2856.348145,1087.760010 
	C2863.564453,1087.760010 2870.108887,1087.760010 2876.909668,1087.760010 
	C2876.909668,1043.712524 2876.909668,1000.217407 2876.909668,956.664917 
	C2868.604736,956.664917 2860.853760,956.664917 2852.242188,956.664917 
	C2852.242188,985.503662 2852.242188,1013.614197 2852.242188,1044.107666 
	C2848.453369,1039.659180 2846.143066,1037.045532 2843.940186,1034.344604 
	C2824.141846,1010.072266 2804.414307,985.742004 2784.496826,961.568237 
	C2782.555664,959.212280 2779.662109,956.622742 2776.889404,956.187134 
	C2771.484619,955.338135 2765.852295,955.938293 2759.796143,955.938293 
	C2759.796143,986.431030 2759.796143,1015.715454 2759.796143,1046.999878 
M3735.536133,955.938599 
	C3733.624268,956.088867 3731.712158,956.239197 3728.964111,956.455200 
	C3728.964111,966.470886 3728.964111,976.069519 3728.964111,985.668152 
	C3728.964111,994.992676 3729.027588,1004.317749 3728.946289,1013.641541 
	C3728.864502,1023.017700 3729.321045,1032.433350 3728.477051,1043.889526 
	C3724.806641,1039.603394 3722.654785,1037.194336 3720.615967,1034.693237 
	C3700.842773,1010.436096 3681.132568,986.127502 3661.260742,961.951477 
	C3659.290771,959.555115 3656.567383,956.653320 3653.846680,956.232544 
	C3648.142334,955.350403 3642.207031,955.965027 3636.579590,955.965027 
	C3636.579590,1000.816406 3636.579590,1044.274658 3636.579590,1087.860352 
	C3644.714844,1087.860352 3652.241943,1087.860352 3660.834717,1087.860352 
	C3660.834717,1059.089966 3660.834717,1030.736084 3660.834717,1000.204956 
	C3664.285889,1004.104370 3666.268799,1006.193909 3668.084717,1008.419922 
	C3688.286865,1033.187622 3708.412842,1058.017822 3728.728516,1082.691772 
	C3730.661621,1085.039429 3733.560059,1087.611450 3736.325439,1088.038452 
	C3741.769287,1088.879272 3747.434570,1088.286255 3753.856934,1088.286255 
	C3753.851562,1043.657471 3753.867920,999.961304 3753.845459,955.938354 
	C3747.362793,955.938354 3742.375488,955.938354 3735.536133,955.938599 
M1738.341553,1061.244751 
	C1739.932617,1058.715454 1741.719116,1056.287109 1743.084717,1053.641479 
	C1757.947754,1024.846191 1753.299316,973.516479 1702.977051,959.475891 
	C1695.077515,957.271851 1686.644043,956.336060 1678.418213,956.081909 
	C1661.801636,955.568604 1645.158081,955.909363 1628.525635,955.942017 
	C1625.969238,955.947083 1623.413330,956.187500 1620.546631,956.335083 
	C1620.546631,1000.452698 1620.546631,1043.868042 1620.546631,1087.406860 
	C1621.811890,1087.765381 1622.722046,1088.249268 1623.631348,1088.247559 
	C1644.586548,1088.211060 1665.574585,1088.822998 1686.487427,1087.842041 
	C1706.883057,1086.885254 1724.477051,1078.857666 1738.341553,1061.244751 
M4434.513672,1031.594604 
	C4438.834961,996.181030 4419.276855,966.226929 4385.593750,956.874207 
	C4371.829590,953.052368 4357.928223,953.036072 4344.062988,956.350037 
	C4314.623535,963.386414 4294.349609,988.055420 4292.592773,1018.827026 
	C4290.867676,1049.042114 4308.979004,1075.984131 4337.676270,1086.039185 
	C4348.902344,1089.972656 4360.481445,1090.974243 4372.177246,1089.874268 
	C4407.551270,1086.547852 4430.740234,1061.490112 4434.513672,1031.594604 
M2347.771729,1060.660278 
	C2349.129395,1058.374756 2350.633545,1056.162720 2351.822754,1053.792847 
	C2369.004395,1019.553894 2356.797363,971.815796 2311.979980,957.673950 
	C2297.660645,953.155518 2283.202881,952.899597 2268.646240,956.230225 
	C2242.368652,962.242615 2221.946045,983.543396 2217.802002,1009.154175 
	C2213.072510,1038.382568 2224.207275,1064.599976 2247.359619,1079.187500 
	C2276.549072,1097.578979 2324.163818,1094.009888 2347.771729,1060.660278 
M1103.856323,1089.773560 
	C1113.785645,1089.182861 1123.982910,1089.837646 1133.594482,1087.770020 
	C1163.438477,1081.350708 1183.265869,1057.093994 1185.462158,1025.927002 
	C1187.522583,996.689697 1170.505737,970.037903 1142.685303,959.214294 
	C1127.338257,953.243591 1111.552368,952.575439 1095.545288,956.074768 
	C1065.916992,962.552002 1045.036133,986.987427 1042.998901,1017.506104 
	C1040.949829,1048.200073 1058.176147,1075.225098 1086.637817,1085.562866 
	C1091.612183,1087.369507 1096.921143,1088.254639 1103.856323,1089.773560 
M611.560913,965.301758 
	C593.002319,953.880005 572.990051,951.587402 552.028564,956.169556 
	C524.020813,962.291931 502.655060,986.082214 500.065216,1013.695557 
	C497.126862,1045.024536 511.884705,1071.647461 538.833252,1083.738892 
	C551.932068,1089.615967 565.701172,1091.045898 579.813293,1089.867065 
	C611.004578,1087.261597 636.068176,1065.349487 641.077759,1034.776611 
	C645.713928,1006.482483 636.874207,982.934326 611.560913,965.301758 
M1502.733398,1083.945068 
	C1504.796875,1082.876953 1506.887329,1081.857788 1508.919678,1080.733521 
	C1550.314331,1057.833252 1552.599609,999.409912 1520.366821,971.749146 
	C1500.429810,954.640076 1477.117798,950.791077 1452.045288,956.215515 
	C1423.694336,962.349121 1402.412354,986.669189 1400.119507,1014.849060 
	C1397.541504,1046.532837 1412.906738,1072.968018 1441.037476,1084.422119 
	C1461.014526,1092.556274 1481.194092,1092.341553 1502.733398,1083.945068 
M3489.039307,1071.986938 
	C3505.754639,1086.849121 3525.633057,1092.041626 3547.366455,1089.802979 
	C3573.757080,1087.084351 3594.298096,1074.566406 3604.731201,1049.531128 
	C3614.929932,1025.058350 3612.556641,1001.020752 3595.870605,979.880066 
	C3579.694824,959.385559 3557.229248,952.520508 3531.925049,954.304565 
	C3499.632812,956.581360 3474.866211,977.832397 3469.041016,1008.829712 
	C3464.580811,1032.563232 3470.625000,1053.661865 3489.039307,1071.986938 
M1282.990845,957.741699 
	C1259.433105,956.870850 1235.875488,956.000000 1211.979004,955.116638 
	C1211.979004,1000.268005 1211.979004,1044.016357 1211.979004,1087.812988 
	C1220.128418,1087.812988 1227.659546,1087.812988 1236.048096,1087.812988 
	C1236.048096,1075.203247 1236.048096,1063.041016 1236.048096,1050.433105 
	C1248.115479,1050.433105 1259.324951,1050.433105 1271.047974,1050.433105 
	C1279.784546,1062.885986 1288.717163,1075.618042 1297.230591,1087.752686 
	C1306.359741,1087.752686 1314.503174,1087.752686 1323.966797,1087.752686 
	C1313.679565,1072.965454 1304.075562,1059.160156 1294.422974,1045.285278 
	C1296.232056,1044.228516 1297.356689,1043.515015 1298.530396,1042.894409 
	C1316.630005,1033.323364 1323.470215,1017.723267 1321.787476,998.078674 
	C1320.137207,978.813599 1309.341797,966.387878 1291.337402,959.976135 
	C1289.151245,959.197693 1286.880737,958.655884 1282.990845,957.741699 
M3927.576416,956.198120 
	C3927.044434,958.667908 3926.054932,961.136536 3926.048828,963.607727 
	C3925.951172,1002.914490 3925.979980,1042.221558 3925.979492,1081.528564 
	C3925.979492,1083.447021 3925.979248,1085.365479 3925.979248,1087.742065 
	C3934.528320,1087.742065 3942.281250,1087.742065 3950.853516,1087.742065 
	C3950.853516,1075.023682 3950.853516,1062.841431 3950.853516,1050.329834 
	C3962.922119,1050.329834 3974.172607,1050.329834 3985.939697,1050.329834 
	C3993.396240,1061.036377 4000.895264,1072.025146 4008.683105,1082.805420 
	C4010.284180,1085.021729 4012.843018,1087.798340 4015.168213,1088.007812 
	C4022.577148,1088.675659 4030.083984,1088.255371 4039.214844,1088.255371 
	C4028.556396,1072.918213 4018.993164,1059.156982 4009.272705,1045.169678 
	C4011.578369,1043.891968 4013.019775,1043.082642 4014.470703,1042.290527 
	C4030.909180,1033.316650 4037.409424,1018.962219 4036.761719,1000.837891 
	C4036.087891,981.983093 4027.238525,968.183533 4009.584961,961.585876 
	C4000.740967,958.280640 3990.916748,956.644958 3981.442627,956.187683 
	C3964.161377,955.353760 3946.810791,955.959229 3927.576416,956.198120 
M765.213135,1088.295410 
	C769.993042,1088.295410 774.772888,1088.295410 781.078247,1088.295410 
	C770.411499,1072.885132 760.887146,1059.125122 751.269531,1045.230591 
	C753.060974,1044.197754 753.911621,1043.694092 754.774963,1043.213379 
	C755.646729,1042.727905 756.547668,1042.293335 757.407532,1041.788330 
	C773.130798,1032.553345 779.255432,1018.425598 778.621582,1000.683472 
	C777.992249,983.069458 769.884766,970.280945 754.181213,962.480652 
	C745.428406,958.132812 735.977661,956.143372 726.203003,956.062927 
	C711.220154,955.939636 696.236084,955.970337 681.252502,955.940247 
	C677.035950,955.931824 672.819397,955.939026 668.459473,955.939026 
	C668.459473,1000.556580 668.459473,1044.008301 668.459473,1087.653564 
	C676.722595,1087.653564 684.489075,1087.653564 693.088013,1087.653564 
	C693.088013,1074.832642 693.088013,1062.641113 693.088013,1050.301636 
	C705.165649,1050.301636 716.399719,1050.301636 727.735046,1050.301636 
	C736.640137,1062.977905 745.424438,1075.482178 754.425720,1088.295288 
	C757.494629,1088.295288 760.458984,1088.295288 765.213135,1088.295410 
M2564.897705,1010.791077 
	C2550.711914,1010.791077 2536.526123,1010.791077 2522.431641,1010.791077 
	C2522.431641,998.811768 2522.431641,988.032837 2522.431641,976.498779 
	C2546.373779,976.498779 2569.601807,976.498779 2592.720703,976.498779 
	C2592.720703,969.240784 2592.720703,962.783569 2592.720703,956.473633 
	C2560.447998,956.473633 2528.919678,956.473633 2497.062500,956.473633 
	C2497.062500,1000.518738 2497.062500,1044.005127 2497.062500,1087.420166 
	C2510.932861,1089.267944 2589.097412,1088.671509 2595.505615,1086.829224 
	C2595.505615,1080.529907 2595.505615,1074.325439 2595.505615,1067.317505 
	C2570.800049,1067.317505 2546.620361,1067.317505 2522.362549,1067.317505 
	C2522.362549,1055.001099 2522.362549,1043.527832 2522.362549,1031.262573 
	C2543.521484,1031.262573 2564.041260,1031.262573 2584.997314,1031.262573 
	C2584.997314,1024.286499 2584.997314,1018.121155 2584.997314,1010.791138 
	C2578.674316,1010.791138 2572.762207,1010.791138 2564.897705,1010.791077 
M1838.992676,976.919678 
	C1849.902222,976.919678 1860.811890,976.919678 1872.169189,976.919678 
	C1872.169189,969.504150 1872.169189,962.991699 1872.169189,956.677490 
	C1839.899536,956.677490 1808.104614,956.677490 1776.641602,956.677490 
	C1776.641602,1000.906311 1776.641602,1044.388916 1776.641602,1087.769043 
	C1809.835571,1087.769043 1842.358398,1087.769043 1874.961426,1087.769043 
	C1874.961426,1080.806274 1874.961426,1074.400391 1874.961426,1067.214111 
	C1850.015869,1067.214111 1825.791016,1067.214111 1801.365234,1067.214111 
	C1801.365234,1055.009521 1801.365234,1043.614258 1801.365234,1031.496338 
	C1822.617676,1031.496338 1843.156128,1031.496338 1863.986206,1031.496338 
	C1863.986206,1024.283081 1863.986206,1017.812378 1863.986206,1010.818604 
	C1853.039429,1010.818604 1842.740112,1010.912842 1832.443359,1010.792358 
	C1821.956299,1010.669678 1811.415527,1011.365295 1801.405518,1010.329224 
	C1801.405518,998.612244 1801.405518,988.134338 1801.405518,976.919495 
	C1813.774292,976.919495 1825.384888,976.919495 1838.992676,976.919678 
M2100.136230,1072.869019 
	C2100.136230,1077.766846 2100.136230,1082.664673 2100.136230,1087.397461 
	C2115.974854,1089.311890 2192.504150,1088.675293 2199.079834,1086.781860 
	C2199.079834,1080.514282 2199.079834,1074.334717 2199.079834,1067.293701 
	C2174.281494,1067.293701 2150.082764,1067.293701 2125.774414,1067.293701 
	C2125.774414,1054.975220 2125.774414,1043.552490 2125.774414,1031.295898 
	C2146.957764,1031.295898 2167.431885,1031.295898 2188.643799,1031.295898 
	C2188.643799,1027.164673 2188.684082,1023.881775 2188.632324,1020.600281 
	C2188.582764,1017.436279 2188.438232,1014.273865 2188.307617,1010.253418 
	C2166.552002,1010.253418 2146.052246,1010.253418 2125.671387,1010.253418 
	C2125.671387,998.825378 2125.671387,988.324280 2125.671387,976.652466 
	C2149.702637,976.652466 2173.138184,976.652466 2196.568359,976.652466 
	C2196.568359,969.229553 2196.568359,963.002686 2196.568359,956.544434 
	C2164.319092,956.544434 2132.559326,956.544434 2100.136230,956.544434 
	C2100.136230,995.070496 2100.136230,1032.987427 2100.136230,1072.869019 
M4063.974609,1062.981689 
	C4063.974609,1071.201172 4063.974609,1079.420654 4063.974609,1087.801270 
	C4097.554199,1087.801270 4130.038086,1087.801270 4162.702148,1087.801270 
	C4162.702148,1080.876831 4162.702148,1074.478271 4162.702148,1067.159058 
	C4137.807129,1067.159058 4113.633789,1067.159058 4089.065918,1067.159058 
	C4089.065918,1055.030396 4089.065918,1043.832520 4089.065918,1031.514526 
	C4110.187500,1031.514526 4131.002930,1031.514526 4151.896484,1031.514526 
	C4151.896484,1024.171143 4151.896484,1017.950745 4151.896484,1010.532959 
	C4130.656738,1010.532959 4109.851074,1010.532959 4089.311523,1010.532959 
	C4089.311523,998.822388 4089.311523,988.327881 4089.311523,976.663574 
	C4113.382324,976.663574 4136.809570,976.663574 4160.231445,976.663574 
	C4160.231445,969.218323 4160.231445,962.967834 4160.231445,956.568237 
	C4128.058105,956.568237 4096.297363,956.568237 4063.974609,956.568237 
	C4063.974609,991.794739 4063.974609,1026.390015 4063.974609,1062.981689 
M1949.062622,998.341064 
	C1948.301270,1000.889893 1947.284912,1003.392944 1946.817749,1005.994568 
	C1941.639526,1034.827026 1949.186279,1059.689209 1972.507568,1076.895264 
	C2001.894775,1098.576538 2047.772217,1091.406860 2067.547607,1073.498779 
	C2067.547607,1055.837891 2067.547607,1038.342407 2067.547607,1020.814758 
	C2059.728760,1020.814758 2052.576416,1020.814758 2044.479492,1020.814758 
	C2044.479492,1034.884277 2044.479492,1048.405151 2044.479492,1061.379150 
	C2033.533447,1067.236816 2027.174316,1068.631958 2014.762695,1068.202515 
	C1991.224243,1067.388184 1972.765137,1050.477661 1970.317383,1027.486328 
	C1967.698120,1002.883606 1982.013794,982.581970 2006.031372,977.243469 
	C2021.475586,973.810608 2035.769043,976.646729 2048.616455,986.097107 
	C2050.649658,987.592651 2052.733154,989.019714 2055.747559,991.153992 
	C2058.217773,988.202148 2060.277344,985.575745 2062.515381,983.111450 
	C2064.862061,980.527771 2067.380127,978.099915 2069.713867,975.715820 
	C2044.210815,944.400269 1970.700317,943.331970 1949.062622,998.341064 
M2989.781494,1008.635498 
	C2977.975342,1034.865112 2966.169189,1061.094727 2954.050293,1088.018799 
	C2963.430664,1088.018799 2971.384033,1088.018799 2979.528076,1088.018799 
	C2983.990967,1077.885132 2988.380127,1067.918579 2992.623291,1058.284058 
	C3014.997559,1058.284058 3036.564209,1058.284058 3058.341797,1058.284058 
	C3062.905518,1068.505859 3067.336182,1078.429199 3071.552490,1087.872070 
	C3080.423096,1087.872070 3088.320801,1087.872070 3097.389893,1087.872070 
	C3077.358154,1043.482178 3057.689209,999.895996 3038.008057,956.283325 
	C3029.583740,956.283325 3021.679688,956.283325 3013.372314,956.283325 
	C3005.633545,973.350647 2997.957520,990.279846 2989.781494,1008.635498 
M280.563782,955.927979 
	C275.296326,955.927979 270.028839,955.927979 264.941528,955.927979 
	C245.020737,1000.220337 225.448807,1043.737061 205.598495,1087.872681 
	C214.868103,1087.872681 223.070358,1087.872681 231.188599,1087.872681 
	C235.580353,1077.748901 239.800873,1068.019775 243.989136,1058.364990 
	C266.253326,1058.364990 288.053711,1058.364990 309.955566,1058.364990 
	C314.395447,1068.451416 318.653839,1078.125610 322.905243,1087.783813 
	C331.415039,1087.783813 339.549530,1087.783813 348.846710,1087.783813 
	C328.824219,1043.407959 309.194763,999.903259 289.518646,956.295105 
	C286.945496,956.163391 284.643799,956.045532 280.563782,955.927979 
M901.258667,1080.177490 
	C902.478821,1082.821655 903.698975,1085.465698 904.668884,1087.567383 
	C913.513855,1087.567383 921.554993,1087.567383 930.476135,1087.567383 
	C910.409119,1043.129150 890.776062,999.652039 871.172607,956.240234 
	C862.618713,956.240234 854.688843,956.240234 846.508545,956.240234 
	C826.854370,999.934265 807.274658,1043.462891 787.320435,1087.823975 
	C796.609863,1087.823975 804.740601,1087.823975 812.847107,1087.823975 
	C817.374451,1077.538086 821.739624,1067.620605 825.838928,1058.307251 
	C848.523376,1058.307251 870.050171,1058.307251 891.714722,1058.307251 
	C894.747131,1065.371826 897.627136,1072.081299 901.258667,1080.177490 
M4452.744629,989.879333 
	C4452.391113,1009.470703 4459.239746,1019.684692 4477.300293,1026.321289 
	C4481.039551,1027.695312 4484.840332,1028.939941 4488.682617,1029.989258 
	C4496.699219,1032.178467 4504.861816,1033.883301 4512.767578,1036.405151 
	C4517.440430,1037.895752 4522.213867,1039.932861 4526.094727,1042.850830 
	C4532.663574,1047.789307 4533.005371,1056.333374 4527.005859,1061.968018 
	C4524.216797,1064.587891 4520.413574,1067.052979 4516.759277,1067.632812 
	C4509.282715,1068.819336 4501.533691,1069.495972 4494.010742,1068.911499 
	C4481.260254,1067.921143 4469.699219,1062.804565 4458.368164,1055.294556 
	C4455.425293,1061.757324 4452.714844,1067.709473 4449.583496,1074.586304 
	C4454.108398,1077.253418 4458.049805,1080.450317 4462.558105,1082.045532 
	C4470.979492,1085.024902 4479.590332,1088.139893 4488.372070,1089.281738 
	C4505.024414,1091.446533 4521.673828,1091.017944 4536.908203,1082.255493 
	C4549.976074,1074.739258 4556.283691,1063.317261 4555.611816,1048.359253 
	C4554.950195,1033.620117 4546.267578,1024.481445 4533.166992,1019.455750 
	C4525.132812,1016.373535 4516.658203,1014.444702 4508.390137,1011.967224 
	C4501.393555,1009.870483 4494.232422,1008.173340 4487.474609,1005.472412 
	C4481.728027,1003.175537 4477.224609,999.183167 4477.512207,991.982056 
	C4477.801758,984.723328 4481.748535,979.636902 4488.279297,977.961365 
	C4495.551758,976.095459 4503.450195,974.453369 4510.737305,975.379578 
	C4521.393555,976.734070 4531.748535,980.462524 4543.086426,983.400513 
	C4545.209473,978.149048 4547.636719,972.145630 4549.960449,966.399109 
	C4534.915039,954.059448 4497.230469,949.106323 4474.658203,960.225769 
	C4462.870605,966.032593 4455.091797,974.938232 4452.744629,989.879333 
M2646.811035,994.153503 
	C2654.418457,984.052490 2664.698486,978.318909 2677.017578,976.444641 
	C2693.868408,973.880859 2708.406738,979.208923 2720.659668,991.297119 
	C2726.272217,985.942200 2731.209717,981.231323 2736.043945,976.619141 
	C2716.439209,950.346558 2663.531982,944.124573 2633.076416,973.473694 
	C2605.530518,1000.019531 2606.375000,1046.878662 2634.830322,1072.605835 
	C2665.347900,1100.197632 2718.420410,1093.054810 2735.920898,1067.458008 
	C2731.023193,1062.825195 2726.030762,1058.102661 2720.739258,1053.097290 
	C2717.814941,1055.458130 2715.321777,1057.583618 2712.714111,1059.557739 
	C2689.905762,1076.824829 2645.804688,1069.860840 2638.743164,1030.692993 
	C2636.474121,1018.107605 2638.843994,1006.187561 2646.811035,994.153503 
M3863.628418,955.156799 
	C3857.332275,954.819458 3850.976562,953.750000 3844.749512,954.257874 
	C3782.404785,959.342407 3765.723877,1021.399963 3790.008789,1059.449951 
	C3814.030029,1097.087280 3869.638916,1098.168457 3896.572510,1074.341064 
	C3898.698730,1072.459961 3900.447266,1070.151733 3902.848145,1067.519043 
	C3899.812744,1064.781006 3897.351562,1062.566284 3894.896240,1060.344971 
	C3892.261475,1057.961182 3889.632080,1055.571289 3887.109863,1053.283447 
	C3862.383789,1072.594360 3835.112549,1073.034180 3817.205078,1054.871338 
	C3801.279541,1038.718506 3800.029297,1010.601990 3814.462158,992.605896 
	C3821.914795,983.313110 3831.868652,978.225586 3843.402344,976.452881 
	C3860.237061,973.865356 3874.759277,979.213989 3887.065918,991.272156 
	C3892.601807,986.038452 3897.574463,981.337280 3902.760010,976.434631 
	C3892.293213,964.316956 3879.868164,958.020752 3863.628418,955.156799 
M3403.137695,954.072998 
	C3397.532227,954.719849 3391.837158,954.936890 3386.336670,956.085632 
	C3357.430908,962.122192 3335.874512,986.834656 3333.728760,1015.147705 
	C3330.793457,1053.881104 3353.006104,1077.057861 3377.545410,1085.803589 
	C3395.372803,1092.157227 3413.524658,1091.996338 3431.341064,1085.590454 
	C3441.046875,1082.100830 3449.812012,1076.854126 3456.547363,1067.695801 
	C3451.289307,1062.691040 3446.301514,1057.943359 3441.391113,1053.269531 
	C3414.410400,1072.935913 3387.713623,1072.972778 3370.122070,1053.724609 
	C3354.459717,1036.587402 3354.438965,1007.847046 3370.076904,990.667236 
	C3387.795166,971.202026 3414.916992,971.183777 3441.314209,990.989014 
	C3446.389160,986.162109 3451.530273,981.272400 3456.825195,976.236084 
	C3442.161621,960.349915 3424.794434,954.321228 3403.137695,954.072998 
M3261.166016,955.924377 
	C3257.580078,955.924377 3253.994385,955.924377 3250.650879,955.924377 
	C3243.791260,967.204773 3237.462646,977.768860 3230.975586,988.234863 
	C3224.647217,998.445679 3218.917236,1009.072266 3211.434082,1019.559937 
	C3198.072510,997.408447 3185.554443,976.655457 3173.455811,956.598022 
	C3164.335693,956.598022 3156.241455,956.598022 3147.136963,956.598022 
	C3149.104004,960.071960 3150.483643,962.648132 3151.990479,965.147522 
	C3164.196777,985.394165 3175.923096,1005.955627 3188.850586,1025.731812 
	C3195.911865,1036.534424 3199.562256,1047.365845 3198.451172,1060.263672 
	C3197.663086,1069.414062 3198.297852,1078.687134 3198.297852,1088.310791 
	C3203.570312,1088.310791 3207.555176,1088.358643 3211.538330,1088.296997 
	C3215.373291,1088.237549 3219.206543,1088.065063 3223.450684,1087.929077 
	C3223.450684,1075.113037 3223.734863,1063.473877 3223.344238,1051.857300 
	C3223.110840,1044.920410 3224.720947,1039.011719 3228.415771,1033.072998 
	C3242.134521,1011.022644 3255.442383,988.716614 3268.874756,966.488525 
	C3270.714844,963.443787 3272.386230,960.297119 3274.854492,955.924194 
	C3269.995117,955.924194 3266.463623,955.924194 3261.166016,955.924377 
M4197.028320,955.946533 
	C4189.458496,955.946533 4181.889160,955.946533 4174.273438,955.946533 
	C4174.273438,963.388000 4174.273438,969.826721 4174.273438,977.156311 
	C4188.734863,977.156311 4202.601562,977.156311 4217.345703,977.156311 
	C4217.345703,1014.514648 4217.345703,1050.979980 4217.345703,1087.615967 
	C4226.029785,1087.615967 4233.775879,1087.615967 4242.346680,1087.615967 
	C4242.346680,1050.460571 4242.346680,1013.968750 4242.346680,977.379700 
	C4257.238770,976.112305 4271.456543,977.826294 4285.292969,976.317322 
	C4285.292969,969.045837 4285.292969,962.855042 4285.292969,955.946533 
	C4256.169434,955.946533 4227.593750,955.946533 4197.028320,955.946533 
M2388.890869,976.881042 
	C2395.734131,977.007874 2402.577637,977.134766 2410.196777,977.276001 
	C2410.196777,1014.853394 2410.196777,1051.304565 2410.196777,1087.583008 
	C2418.816162,1087.583008 2426.602783,1087.583008 2435.216797,1087.583008 
	C2435.216797,1050.457764 2435.216797,1014.029358 2435.216797,976.786011 
	C2449.872803,976.786011 2463.696289,976.786011 2477.791504,976.786011 
	C2477.791504,969.496948 2477.791504,963.052917 2477.791504,956.400024 
	C2440.464355,956.400024 2403.689453,956.400024 2366.556152,956.400024 
	C2366.556152,963.302063 2366.556152,969.744934 2366.556152,976.881104 
	C2373.716309,976.881104 2380.324463,976.881104 2388.890869,976.881042 
M1014.947998,955.949951 
	C984.755005,955.949951 954.561951,955.949951 924.527527,955.949951 
	C924.527527,963.614319 924.527527,970.070496 924.527527,977.290222 
	C939.124146,977.290222 953.023560,977.290222 967.730835,977.290222 
	C967.730835,1014.541992 967.730835,1051.023193 967.730835,1088.283325 
	C972.455322,1088.283325 976.379333,1088.283203 980.303345,1088.283203 
	C984.149353,1088.283203 987.995361,1088.283325 992.699646,1088.283325 
	C992.699646,1050.459839 992.699646,1014.020630 992.699646,976.726562 
	C1007.440552,976.726562 1021.293335,976.726562 1035.387573,976.726562 
	C1035.387573,969.402100 1035.387573,962.966980 1035.387573,955.949951 
	C1028.827881,955.949951 1022.875977,955.949951 1014.947998,955.949951 
M125.127579,1088.291504 
	C151.306976,1088.291504 177.486374,1088.291504 203.536682,1088.291504 
	C203.536682,1080.803467 203.536682,1074.618408 203.536682,1067.337891 
	C180.639709,1067.337891 158.206116,1067.337891 134.917618,1067.337891 
	C134.917618,1029.707886 134.917618,993.182129 134.917618,956.620605 
	C126.240761,956.620605 118.460747,956.620605 110.735466,956.620605 
	C110.735466,1000.755554 110.735466,1044.209961 110.735466,1088.291504 
	C115.265480,1088.291504 119.214249,1088.291504 125.127579,1088.291504 
M2934.324707,955.944702 
	C2927.152832,955.944702 2919.980957,955.944702 2912.739746,955.944702 
	C2912.739746,1000.642029 2912.739746,1044.028198 2912.739746,1087.831421 
	C2920.996338,1087.831421 2928.780762,1087.831421 2937.029053,1087.831421 
	C2937.205566,1085.777100 2937.461182,1084.184204 2937.462158,1082.591064 
	C2937.484619,1042.716064 2937.501953,1002.840942 2937.423828,962.966125 
	C2937.419434,960.770996 2936.584229,958.577393 2934.324707,955.944702 
M1348.899902,1030.999512 
	C1348.899902,1049.908813 1348.899902,1068.817993 1348.899902,1087.704346 
	C1357.844604,1087.704346 1365.671387,1087.704346 1373.505127,1087.704346 
	C1373.505127,1043.586914 1373.505127,1000.104187 1373.505127,956.529907 
	C1365.156494,956.529907 1357.380005,956.529907 1348.900024,956.529907 
	C1348.900024,981.101135 1348.900024,1005.050232 1348.899902,1030.999512 
z"/>
<path fill="#302B35" opacity="1.000000" stroke="none" 
	d="
M3439.358398,592.625854 
	C3418.360840,626.065979 3398.125000,659.733765 3377.953857,693.440369 
	C3361.540771,720.866394 3345.208008,748.340515 3328.830322,775.787659 
	C3327.303467,778.346558 3325.707520,780.864075 3323.976074,783.673218 
	C3304.998291,783.673218 3286.083008,783.673218 3266.094482,783.673218 
	C3228.370605,722.170715 3190.288330,660.083740 3152.316650,598.176941 
	C3151.483887,598.296997 3151.138916,598.274048 3150.871826,598.407227 
	C3150.642090,598.521606 3150.360596,598.803833 3150.344238,599.029358 
	C3150.248047,600.355469 3150.180176,601.686768 3150.179688,603.016357 
	C3150.152100,677.327454 3150.132812,751.638489 3150.102783,825.949585 
	C3150.102539,826.272705 3149.974609,826.597961 3149.891357,826.918335 
	C3149.807373,827.240662 3149.704834,827.558044 3149.399902,828.591370 
	C3110.511230,828.591370 3071.404785,828.591370 3031.626465,828.591370 
	C3031.626465,677.360657 3031.626465,526.244202 3031.626465,374.447937 
	C3066.810547,374.447937 3101.949951,374.447937 3137.702393,374.447937 
	C3190.450928,461.052582 3243.429443,548.035034 3297.065918,636.097595 
	C3349.277588,548.230896 3400.932129,461.301422 3452.650879,374.264160 
	C3488.016602,374.264160 3523.204834,374.264160 3559.363281,374.264160 
	C3559.363281,525.896240 3559.363281,677.036621 3559.363281,828.742432 
	C3520.754883,828.742432 3481.939697,828.742432 3441.833496,828.742432 
	C3441.833496,824.513367 3441.845215,820.616516 3441.832031,816.719788 
	C3441.690674,775.068909 3441.660645,733.417175 3441.364014,691.767334 
	C3441.129150,658.800476 3440.565674,625.835938 3439.358398,592.625854 
z"/>
<path fill="#312B35" opacity="1.000000" stroke="none" 
	d="
M446.335754,710.000122 
	C446.335785,749.970276 446.335785,788.940430 446.335785,828.607544 
	C404.300995,828.607544 362.845032,828.607544 320.691223,828.607544 
	C320.691223,677.437195 320.691223,526.323425 320.691223,374.535187 
	C322.645569,374.299713 324.839722,373.808655 327.034668,373.805054 
	C357.698242,373.754395 388.363556,373.930725 419.024200,373.625946 
	C424.714783,373.569397 428.082458,375.703827 431.514893,379.857300 
	C494.350281,455.892792 557.312500,531.823425 620.252625,607.772339 
	C621.721313,609.544556 623.245239,611.270996 624.658020,612.919128 
	C625.247009,612.801392 625.604309,612.796631 625.891357,612.652161 
	C626.137573,612.528198 626.479919,612.244568 626.479980,612.031433 
	C626.505310,533.102478 626.504883,454.173492 626.504883,374.508118 
	C669.060242,374.508118 710.512939,374.508118 752.691650,374.508118 
	C752.691650,525.451782 752.691650,676.581177 752.691650,828.359802 
	C750.708862,828.654114 748.508545,829.260742 746.307129,829.265198 
	C715.643555,829.327393 684.976257,829.059814 654.319031,829.505615 
	C647.809753,829.600220 644.738525,826.243469 641.294434,822.083984 
	C579.023804,746.879089 516.720459,671.701294 454.413116,596.526794 
	C452.357056,594.046143 450.185883,591.661011 446.335754,587.243347 
	C446.335754,629.448181 446.335754,669.224121 446.335754,710.000122 
z"/>
<path fill="#312B35" opacity="1.000000" stroke="none" 
	d="
M2160.732910,407.245667 
	C2218.233887,446.320557 2252.500977,499.621460 2261.347900,567.790894 
	C2277.904541,695.365173 2203.096680,796.626465 2089.269043,827.623413 
	C2018.379639,846.927612 1948.394043,842.483948 1882.351440,808.166809 
	C1814.778809,773.054565 1772.750000,717.485107 1760.843872,642.093262 
	C1739.615967,507.674500 1819.368164,404.534882 1934.422852,374.345642 
	C2000.879883,356.907928 2066.479248,361.038086 2129.570068,389.962372 
	C2140.120605,394.799377 2149.971924,401.162354 2160.732910,407.245667 
M2053.918457,478.829529 
	C2040.620972,474.141998 2026.936035,471.824799 2012.824585,471.553436 
	C1957.278931,470.485229 1910.685425,503.661774 1894.303345,556.391479 
	C1887.273560,579.018799 1886.290039,602.109680 1889.608154,625.556030 
	C1897.343140,680.209961 1938.985229,725.277039 1998.438721,730.765137 
	C2056.347656,736.110657 2108.063965,703.217651 2126.117920,648.042664 
	C2133.282227,626.147461 2135.170166,603.667419 2131.909668,580.953369 
	C2125.051514,533.176758 2101.055664,498.073975 2053.918457,478.829529 
z"/>
<path fill="#312B35" opacity="1.000000" stroke="none" 
	d="
M1489.999756,829.309692 
	C1441.379639,829.309631 1393.759521,829.309631 1346.340576,829.309631 
	C1344.138428,821.389465 1343.279785,395.651398 1345.228638,375.271698 
	C1352.448364,373.385010 1682.219360,372.576874 1701.197632,374.464905 
	C1701.197632,406.908966 1701.197632,439.428040 1701.197632,473.355377 
	C1690.636475,473.830719 1679.768555,473.499573 1668.924927,473.561096 
	C1658.258667,473.621613 1647.591919,473.574310 1636.925293,473.574310 
	C1625.925415,473.574310 1614.925415,473.574310 1603.925537,473.574310 
	C1592.925659,473.574310 1581.925659,473.574310 1570.925781,473.574310 
	C1559.925903,473.574310 1548.925903,473.574310 1537.926025,473.574310 
	C1527.259399,473.574310 1516.592896,473.574310 1505.926270,473.574310 
	C1495.009766,473.574310 1484.093384,473.574310 1472.683838,473.574310 
	C1472.683838,499.341675 1472.683838,524.145569 1472.683838,549.621765 
	C1539.696777,549.621765 1606.244385,549.621765 1672.602539,549.621765 
	C1674.728516,557.259216 1675.205688,632.442383 1673.299805,646.071350 
	C1606.846191,646.071350 1540.293457,646.071350 1473.932129,646.071350 
	C1471.781982,653.700806 1471.097046,710.235168 1472.862549,729.227295 
	C1551.526978,729.227295 1630.309814,729.227295 1709.629150,729.227295 
	C1709.629150,762.877258 1709.629150,795.406921 1709.629150,829.309753 
	C1636.736206,829.309753 1563.867920,829.309753 1489.999756,829.309692 
z"/>
<path fill="#312B35" opacity="1.000000" stroke="none" 
	d="
M899.467896,778.551392 
	C850.511169,735.304993 824.907166,681.480408 821.215149,617.130920 
	C817.570190,553.601074 833.935303,496.347229 876.001038,447.724152 
	C909.082520,409.485840 951.158325,385.444702 1000.009277,373.629303 
	C1062.126221,358.605286 1123.556030,361.210754 1183.598267,383.999817 
	C1214.225952,395.624573 1241.009644,413.368774 1263.752197,437.047913 
	C1266.926147,440.352600 1269.887939,443.861176 1273.548950,447.945923 
	C1245.845459,473.006378 1218.757568,497.510040 1192.385986,521.365723 
	C1180.817871,512.014099 1170.673096,502.157959 1159.005371,494.676971 
	C1116.085327,467.157776 1070.153931,464.142090 1023.348450,482.555511 
	C992.075989,494.858215 970.234558,518.143433 959.480286,550.145447 
	C945.981079,590.315674 946.785522,630.370483 967.280029,668.239075 
	C987.478577,705.560974 1020.141174,725.216675 1061.913940,730.152344 
	C1088.531738,733.297424 1114.385742,729.906311 1139.400146,720.261536 
	C1142.449585,719.085754 1145.422607,717.711548 1148.881348,716.237427 
	C1148.881348,674.942261 1148.881348,634.031677 1148.881348,593.323853 
	C1156.514526,591.209595 1246.722290,590.523804 1262.577881,592.361084 
	C1262.723633,595.139099 1263.007812,598.045166 1263.009277,600.951416 
	C1263.036011,657.936951 1262.896484,714.923279 1263.210693,771.907104 
	C1263.247192,778.535461 1260.911377,782.098389 1255.664795,785.544556 
	C1220.370972,808.725891 1181.605347,823.181152 1140.436523,831.328735 
	C1097.547974,839.816772 1054.497803,841.019348 1011.418579,832.217468 
	C969.853210,823.724854 932.572693,806.321533 899.467896,778.551392 
z"/>
<path fill="#312B35" opacity="1.000000" stroke="none" 
	d="
M2313.719482,658.244568 
	C2297.018066,572.055115 2313.580322,495.759308 2376.688965,433.051453 
	C2409.404785,400.543091 2449.455322,380.692932 2494.470459,371.284180 
	C2550.120361,359.652588 2605.057373,362.190674 2658.693604,381.961121 
	C2692.403809,394.386810 2721.461182,413.925720 2745.511475,440.729248 
	C2748.154053,443.674255 2750.610107,446.786682 2753.791260,450.584076 
	C2726.342285,475.424957 2699.311768,499.887115 2671.917236,524.678711 
	C2668.225098,520.760193 2665.070068,517.413086 2661.916748,514.064453 
	C2614.598145,463.816437 2548.012695,462.846741 2503.285645,485.338898 
	C2467.646729,503.260895 2447.769775,533.305237 2440.463867,571.719727 
	C2434.950684,600.708496 2436.583984,629.595337 2448.114990,657.115234 
	C2466.375488,700.694885 2500.028076,724.302551 2546.376953,730.063232 
	C2594.759766,736.076843 2634.602783,719.302429 2666.883545,683.377930 
	C2668.215332,681.895874 2669.540771,680.408081 2671.747559,677.940796 
	C2698.919922,702.517822 2725.952148,726.967957 2753.538086,751.919128 
	C2751.699219,754.376282 2750.299072,756.500610 2748.651367,758.411255 
	C2715.948975,796.334045 2674.562744,819.787048 2626.037109,830.564270 
	C2566.363770,843.817200 2507.331543,841.546875 2450.568115,817.704895 
	C2379.017090,787.651794 2332.886719,734.825867 2313.719482,658.244568 
z"/>
<path fill="#312B35" opacity="1.000000" stroke="none" 
	d="
M4384.164062,712.288940 
	C4399.328613,702.873169 4411.680176,691.302979 4423.092773,677.904785 
	C4450.401367,702.599731 4477.312988,726.935974 4505.085938,752.050903 
	C4502.693848,755.017944 4500.594727,757.851624 4498.263184,760.479187 
	C4465.776367,797.093750 4425.161621,819.976929 4377.663574,830.512878 
	C4318.335449,843.673035 4259.611328,841.676331 4203.094727,818.109436 
	C4126.918457,786.344788 4078.379639,730.035583 4063.415039,648.430176 
	C4048.954346,569.573792 4066.159424,497.973145 4122.518066,438.563263 
	C4156.274414,402.979858 4198.220703,381.206085 4246.039062,371.252289 
	C4303.775879,359.233734 4360.669922,362.252899 4415.849121,384.207642 
	C4448.566895,397.225342 4476.675293,417.066467 4499.667480,443.906189 
	C4501.367188,445.890717 4502.883789,448.032867 4504.979980,450.740326 
	C4477.813477,475.340302 4450.961426,499.655853 4423.501953,524.520874 
	C4421.037109,522.034607 4418.734375,519.841431 4416.576172,517.513855 
	C4395.120605,494.375854 4369.706055,478.187256 4338.017578,473.400360 
	C4257.827637,461.286896 4193.771484,510.595947 4189.636230,590.831238 
	C4188.348633,615.808899 4191.051758,640.093445 4201.979492,662.914368 
	C4220.786133,702.188721 4252.668945,723.707336 4295.130371,729.822693 
	C4326.416016,734.328491 4356.180176,729.264404 4384.164062,712.288940 
z"/>
<path fill="#312B35" opacity="1.000000" stroke="none" 
	d="
M3766.159668,668.898682 
	C3764.822510,664.343750 3764.032227,660.359253 3762.070557,657.074036 
	C3708.486816,567.332153 3654.782227,477.662323 3601.106445,387.975372 
	C3598.597168,383.782349 3596.169922,379.540070 3593.129150,374.335327 
	C3639.249756,374.335327 3684.016113,374.335327 3729.222412,374.335327 
	C3764.775391,433.842957 3800.412842,493.492065 3836.656738,554.156006 
	C3872.962158,493.393280 3908.592529,433.760925 3944.257080,374.070801 
	C3985.556152,374.070801 4026.484131,374.070801 4069.024414,374.070801 
	C4066.944824,377.854095 4065.372070,380.936493 4063.602783,383.901581 
	C4009.536133,474.517426 3955.502686,565.153198 3901.262939,655.665344 
	C3897.170166,662.495117 3895.220947,669.192078 3895.271240,677.202393 
	C3895.564941,723.843201 3895.414551,770.486816 3895.414307,817.129456 
	C3895.414307,820.734863 3895.414307,824.340271 3895.414307,828.615173 
	C3852.161865,828.615173 3809.730713,828.615173 3766.160889,828.615173 
	C3766.160889,775.502380 3766.160889,722.648682 3766.159668,668.898682 
z"/>
<path fill="#322C36" opacity="1.000000" stroke="none" 
	d="
M2810.580078,765.999756 
	C2810.580078,635.085510 2810.580078,505.171295 2810.580078,374.510559 
	C2853.664307,374.510559 2896.101318,374.510559 2939.195312,374.510559 
	C2939.195312,525.514038 2939.195312,676.649170 2939.195312,827.827759 
	C2932.464844,829.660767 2825.792236,830.264954 2810.580078,828.320190 
	C2810.580078,808.026672 2810.580078,787.513245 2810.580078,765.999756 
z"/>
<path fill="#302A34" opacity="1.000000" stroke="none" 
	d="
M228.596985,520.000244 
	C228.597031,623.292847 228.597031,725.585449 228.597031,828.589417 
	C185.496445,828.589417 143.082657,828.589417 100.317566,828.589417 
	C100.317566,677.018738 100.317566,525.858582 100.317566,374.235748 
	C142.974777,374.235748 185.151367,374.235748 228.596939,374.235748 
	C228.596939,422.629333 228.596939,470.814758 228.596985,520.000244 
z"/>
<path fill="#060525" opacity="1.000000" stroke="none" 
	d="
M386.031433,1088.298218 
	C379.063263,1088.298218 373.088867,1088.298218 366.378906,1088.298218 
	C366.378906,1044.370117 366.378906,1000.696594 366.378906,955.935974 
	C370.125580,955.935974 374.013580,955.931213 377.901581,955.936829 
	C395.534882,955.962463 413.180054,955.622681 430.795868,956.191650 
	C438.327026,956.434814 446.126312,957.606628 453.235657,960.025879 
	C479.132111,968.838379 484.688110,997.853821 464.400604,1016.411804 
	C463.433411,1017.296570 462.439117,1018.151733 461.198334,1019.250061 
	C462.802521,1020.270630 464.142273,1021.226929 465.573578,1022.017334 
	C479.126007,1029.501587 484.163849,1041.341064 482.869232,1056.248901 
	C481.590881,1070.970093 472.794586,1079.851685 459.370575,1084.102539 
	C452.488831,1086.281738 445.121307,1087.690552 437.920319,1087.944702 
	C420.972198,1088.542603 403.992279,1088.237793 386.031433,1088.298218 
M428.302704,1030.861694 
	C415.744415,1030.861694 403.186127,1030.861694 390.625000,1030.861694 
	C390.625000,1044.070190 390.625000,1055.954590 390.625000,1068.156250 
	C406.959595,1068.156250 422.835571,1068.240112 438.708893,1068.071655 
	C441.286896,1068.044312 443.924622,1067.103271 446.411163,1066.231934 
	C453.755585,1063.658325 457.847839,1058.525879 458.099243,1050.595703 
	C458.359436,1042.388916 454.851318,1036.524780 446.719086,1033.833984 
	C441.440216,1032.087280 435.675171,1031.809937 428.302704,1030.861694 
M390.158112,998.793884 
	C390.158112,1002.962158 390.158112,1007.130371 390.158112,1011.630432 
	C404.192444,1011.630432 416.784424,1011.891052 429.354767,1011.483582 
	C433.537720,1011.347961 437.825470,1009.904907 441.781830,1008.342041 
	C448.352997,1005.746033 451.392029,1000.339783 451.338440,993.424744 
	C451.284637,986.481201 447.955383,981.159973 441.519867,978.585510 
	C437.599152,977.017090 433.216064,976.077698 428.995087,975.892029 
	C419.049774,975.454407 409.077087,975.587036 399.115662,975.602234 
	C396.281067,975.606506 393.447083,976.000122 390.158112,976.249695 
	C390.158112,983.651672 390.158112,990.254028 390.158112,998.793884 
z"/>
<path fill="#080728" opacity="1.000000" stroke="none" 
	d="
M2759.796143,1045.999878 
	C2759.796143,1015.715454 2759.796143,986.431030 2759.796143,955.938293 
	C2765.852295,955.938293 2771.484619,955.338135 2776.889404,956.187134 
	C2779.662109,956.622742 2782.555664,959.212280 2784.496826,961.568237 
	C2804.414307,985.742004 2824.141846,1010.072266 2843.940186,1034.344604 
	C2846.143066,1037.045532 2848.453369,1039.659180 2852.242188,1044.107666 
	C2852.242188,1013.614197 2852.242188,985.503662 2852.242188,956.664917 
	C2860.853760,956.664917 2868.604736,956.664917 2876.909668,956.664917 
	C2876.909668,1000.217407 2876.909668,1043.712524 2876.909668,1087.760010 
	C2870.108887,1087.760010 2863.564453,1087.760010 2856.348145,1087.760010 
	C2833.202148,1059.368408 2809.712646,1030.555664 2786.223389,1001.743042 
	C2785.629395,1001.927673 2785.035645,1002.112366 2784.441895,1002.297058 
	C2784.441895,1030.668579 2784.441895,1059.040039 2784.441895,1087.850464 
	C2775.872314,1087.850464 2768.372314,1087.850464 2759.796143,1087.850464 
	C2759.796143,1074.100342 2759.796143,1060.550171 2759.796143,1045.999878 
z"/>
<path fill="#050525" opacity="1.000000" stroke="none" 
	d="
M3736.462158,955.938477 
	C3742.375488,955.938354 3747.362793,955.938354 3753.845459,955.938354 
	C3753.867920,999.961304 3753.851562,1043.657471 3753.856934,1088.286255 
	C3747.434570,1088.286255 3741.769287,1088.879272 3736.325439,1088.038452 
	C3733.560059,1087.611450 3730.661621,1085.039429 3728.728516,1082.691772 
	C3708.412842,1058.017822 3688.286865,1033.187622 3668.084717,1008.419922 
	C3666.268799,1006.193909 3664.285889,1004.104370 3660.834717,1000.204956 
	C3660.834717,1030.736084 3660.834717,1059.089966 3660.834717,1087.860352 
	C3652.241943,1087.860352 3644.714844,1087.860352 3636.579590,1087.860352 
	C3636.579590,1044.274658 3636.579590,1000.816406 3636.579590,955.965027 
	C3642.207031,955.965027 3648.142334,955.350403 3653.846680,956.232544 
	C3656.567383,956.653320 3659.290771,959.555115 3661.260742,961.951477 
	C3681.132568,986.127502 3700.842773,1010.436096 3720.615967,1034.693237 
	C3722.654785,1037.194336 3724.806641,1039.603394 3728.477051,1043.889526 
	C3729.321045,1032.433350 3728.864502,1023.017700 3728.946289,1013.641541 
	C3729.027588,1004.317749 3728.964111,994.992676 3728.964111,985.668152 
	C3728.964111,976.069519 3728.964111,966.470886 3728.964111,956.455200 
	C3731.712158,956.239197 3733.624268,956.088867 3736.462158,955.938477 
z"/>
<path fill="#080727" opacity="1.000000" stroke="none" 
	d="
M1737.938721,1061.842773 
	C1724.477051,1078.857666 1706.883057,1086.885254 1686.487427,1087.842041 
	C1665.574585,1088.822998 1644.586548,1088.211060 1623.631348,1088.247559 
	C1622.722046,1088.249268 1621.811890,1087.765381 1620.546631,1087.406860 
	C1620.546631,1043.868042 1620.546631,1000.452698 1620.546631,956.335083 
	C1623.413330,956.187500 1625.969238,955.947083 1628.525635,955.942017 
	C1645.158081,955.909363 1661.801636,955.568604 1678.418213,956.081909 
	C1686.644043,956.336060 1695.077515,957.271851 1702.977051,959.475891 
	C1753.299316,973.516479 1757.947754,1024.846191 1743.084717,1053.641479 
	C1741.719116,1056.287109 1739.932617,1058.715454 1737.938721,1061.842773 
M1709.815308,1057.000366 
	C1724.905029,1044.008301 1727.950806,1027.276367 1723.566284,1008.985596 
	C1719.750854,993.069275 1708.841919,983.168762 1693.133545,979.211182 
	C1677.557129,975.286926 1661.685303,977.139648 1645.552002,977.084412 
	C1645.552002,1007.660278 1645.552002,1037.089233 1645.552002,1066.791626 
	C1658.924561,1066.791626 1671.803711,1067.130981 1684.654541,1066.674072 
	C1693.431152,1066.361938 1701.475342,1063.070312 1709.815308,1057.000366 
z"/>
<path fill="#070626" opacity="1.000000" stroke="none" 
	d="
M4434.416992,1032.447998 
	C4430.740234,1061.490112 4407.551270,1086.547852 4372.177246,1089.874268 
	C4360.481445,1090.974243 4348.902344,1089.972656 4337.676270,1086.039185 
	C4308.979004,1075.984131 4290.867676,1049.042114 4292.592773,1018.827026 
	C4294.349609,988.055420 4314.623535,963.386414 4344.062988,956.350037 
	C4357.928223,953.036072 4371.829590,953.052368 4385.593750,956.874207 
	C4419.276855,966.226929 4438.834961,996.181030 4434.416992,1032.447998 
M4410.005859,1017.613708 
	C4408.480469,1002.446899 4401.628906,990.429565 4388.529785,982.430725 
	C4370.791504,971.598999 4345.856934,974.408020 4331.244629,988.610291 
	C4316.625977,1002.818970 4313.355957,1027.463867 4323.666504,1045.727051 
	C4333.809082,1063.692993 4355.137207,1072.357056 4376.038574,1067.002075 
	C4397.818848,1061.421875 4409.944336,1044.466187 4410.005859,1017.613708 
z"/>
<path fill="#070626" opacity="1.000000" stroke="none" 
	d="
M2347.339355,1061.239624 
	C2324.163818,1094.009888 2276.549072,1097.578979 2247.359619,1079.187500 
	C2224.207275,1064.599976 2213.072510,1038.382568 2217.802002,1009.154175 
	C2221.946045,983.543396 2242.368652,962.242615 2268.646240,956.230225 
	C2283.202881,952.899597 2297.660645,953.155518 2311.979980,957.673950 
	C2356.797363,971.815796 2369.004395,1019.553894 2351.822754,1053.792847 
	C2350.633545,1056.162720 2349.129395,1058.374756 2347.339355,1061.239624 
M2247.372070,1045.190552 
	C2258.229736,1065.976318 2283.009766,1072.804199 2304.248047,1065.751587 
	C2324.228760,1059.116455 2335.945312,1039.456421 2333.915039,1016.886292 
	C2331.983154,995.407959 2315.371338,978.480225 2293.970703,976.182495 
	C2270.644775,973.678040 2250.646484,985.910156 2244.024658,1006.996826 
	C2240.081299,1019.554626 2240.941895,1031.918213 2247.372070,1045.190552 
z"/>
<path fill="#070626" opacity="1.000000" stroke="none" 
	d="
M1102.965942,1089.669434 
	C1096.921143,1088.254639 1091.612183,1087.369507 1086.637817,1085.562866 
	C1058.176147,1075.225098 1040.949829,1048.200073 1042.998901,1017.506104 
	C1045.036133,986.987427 1065.916992,962.552002 1095.545288,956.074768 
	C1111.552368,952.575439 1127.338257,953.243591 1142.685303,959.214294 
	C1170.505737,970.037903 1187.522583,996.689697 1185.462158,1025.927002 
	C1183.265869,1057.093994 1163.438477,1081.350708 1133.594482,1087.770020 
	C1123.982910,1089.837646 1113.785645,1089.182861 1102.965942,1089.669434 
M1070.379761,1006.094055 
	C1060.043213,1038.340088 1081.761353,1070.937744 1118.338989,1068.222290 
	C1139.756714,1066.632446 1157.343994,1050.557739 1159.920166,1029.321167 
	C1162.809692,1005.503052 1150.530762,984.703796 1129.430664,978.220642 
	C1105.409180,970.839905 1080.016846,981.038818 1070.379761,1006.094055 
z"/>
<path fill="#070626" opacity="1.000000" stroke="none" 
	d="
M612.186279,965.674072 
	C636.874207,982.934326 645.713928,1006.482483 641.077759,1034.776611 
	C636.068176,1065.349487 611.004578,1087.261597 579.813293,1089.867065 
	C565.701172,1091.045898 551.932068,1089.615967 538.833252,1083.738892 
	C511.884705,1071.647461 497.126862,1045.024536 500.065216,1013.695557 
	C502.655060,986.082214 524.020813,962.291931 552.028564,956.169556 
	C572.990051,951.587402 593.002319,953.880005 612.186279,965.674072 
M525.294495,1029.546387 
	C527.861084,1052.710327 549.703613,1074.413940 582.803162,1066.944824 
	C608.178711,1061.218628 622.221069,1036.040161 615.723572,1009.682556 
	C609.896240,986.043457 585.509155,971.470459 560.792725,976.820496 
	C534.157898,982.585754 522.320496,1006.032288 525.294495,1029.546387 
z"/>
<path fill="#070626" opacity="1.000000" stroke="none" 
	d="
M1502.003906,1084.188232 
	C1481.194092,1092.341553 1461.014526,1092.556274 1441.037476,1084.422119 
	C1412.906738,1072.968018 1397.541504,1046.532837 1400.119507,1014.849060 
	C1402.412354,986.669189 1423.694336,962.349121 1452.045288,956.215515 
	C1477.117798,950.791077 1500.429810,954.640076 1520.366821,971.749146 
	C1552.599609,999.409912 1550.314331,1057.833252 1508.919678,1080.733521 
	C1506.887329,1081.857788 1504.796875,1082.876953 1502.003906,1084.188232 
M1426.644165,1008.335144 
	C1426.247925,1010.627197 1425.786621,1012.910156 1425.465332,1015.212708 
	C1421.263062,1045.327271 1442.186890,1068.812744 1472.699707,1068.250488 
	C1497.363159,1067.796143 1515.743652,1050.326050 1517.330566,1024.960571 
	C1518.641724,1004.003540 1507.027954,981.045105 1479.272949,976.562012 
	C1452.197876,972.188721 1432.962158,987.822266 1426.644165,1008.335144 
z"/>
<path fill="#070626" opacity="1.000000" stroke="none" 
	d="
M3488.513428,1071.508423 
	C3470.625000,1053.661865 3464.580811,1032.563232 3469.041016,1008.829712 
	C3474.866211,977.832397 3499.632812,956.581360 3531.925049,954.304565 
	C3557.229248,952.520508 3579.694824,959.385559 3595.870605,979.880066 
	C3612.556641,1001.020752 3614.929932,1025.058350 3604.731201,1049.531128 
	C3594.298096,1074.566406 3573.757080,1087.084351 3547.366455,1089.802979 
	C3525.633057,1092.041626 3505.754639,1086.849121 3488.513428,1071.508423 
M3492.636230,1021.186707 
	C3493.517090,1026.740356 3493.700684,1032.518066 3495.401123,1037.808228 
	C3502.289551,1059.236694 3522.582275,1070.968872 3546.620117,1067.925659 
	C3567.642334,1065.263916 3583.178467,1048.388672 3585.265625,1025.949097 
	C3587.449951,1002.469482 3572.307861,981.871765 3549.161377,976.837097 
	C3525.511963,971.693176 3502.420654,984.458618 3495.229492,1006.866516 
	C3493.921631,1010.941833 3493.513428,1015.305786 3492.636230,1021.186707 
z"/>
<path fill="#050425" opacity="1.000000" stroke="none" 
	d="
M1283.820068,957.873047 
	C1286.880737,958.655884 1289.151245,959.197693 1291.337402,959.976135 
	C1309.341797,966.387878 1320.137207,978.813599 1321.787476,998.078674 
	C1323.470215,1017.723267 1316.630005,1033.323364 1298.530396,1042.894409 
	C1297.356689,1043.515015 1296.232056,1044.228516 1294.422974,1045.285278 
	C1304.075562,1059.160156 1313.679565,1072.965454 1323.966797,1087.752686 
	C1314.503174,1087.752686 1306.359741,1087.752686 1297.230591,1087.752686 
	C1288.717163,1075.618042 1279.784546,1062.885986 1271.047974,1050.433105 
	C1259.324951,1050.433105 1248.115479,1050.433105 1236.048096,1050.433105 
	C1236.048096,1063.041016 1236.048096,1075.203247 1236.048096,1087.812988 
	C1227.659546,1087.812988 1220.128418,1087.812988 1211.979004,1087.812988 
	C1211.979004,1044.016357 1211.979004,1000.268005 1211.979004,955.116638 
	C1235.875488,956.000000 1259.433105,956.870850 1283.820068,957.873047 
M1235.985718,993.167847 
	C1235.985718,1005.041138 1235.985718,1016.914368 1235.985718,1029.366455 
	C1250.762085,1029.400635 1264.387329,1030.923584 1277.811279,1027.823730 
	C1289.744019,1025.068237 1296.514404,1016.391663 1296.987427,1004.202698 
	C1297.481567,991.469543 1291.178955,982.068054 1278.822144,978.903259 
	C1264.857422,975.326538 1250.621826,977.078308 1235.985718,976.975525 
	C1235.985718,982.609497 1235.985718,986.920959 1235.985718,993.167847 
z"/>
<path fill="#050425" opacity="1.000000" stroke="none" 
	d="
M3928.532715,956.081116 
	C3946.810791,955.959229 3964.161377,955.353760 3981.442627,956.187683 
	C3990.916748,956.644958 4000.740967,958.280640 4009.584961,961.585876 
	C4027.238525,968.183533 4036.087891,981.983093 4036.761719,1000.837891 
	C4037.409424,1018.962219 4030.909180,1033.316650 4014.470703,1042.290527 
	C4013.019775,1043.082642 4011.578369,1043.891968 4009.272705,1045.169678 
	C4018.993164,1059.156982 4028.556396,1072.918213 4039.214844,1088.255371 
	C4030.083984,1088.255371 4022.577148,1088.675659 4015.168213,1088.007812 
	C4012.843018,1087.798340 4010.284180,1085.021729 4008.683105,1082.805420 
	C4000.895264,1072.025146 3993.396240,1061.036377 3985.939697,1050.329834 
	C3974.172607,1050.329834 3962.922119,1050.329834 3950.853516,1050.329834 
	C3950.853516,1062.841431 3950.853516,1075.023682 3950.853516,1087.742065 
	C3942.281250,1087.742065 3934.528320,1087.742065 3925.979248,1087.742065 
	C3925.979248,1085.365479 3925.979492,1083.447021 3925.979492,1081.528564 
	C3925.979980,1042.221558 3925.951172,1002.914490 3926.048828,963.607727 
	C3926.054932,961.136536 3927.044434,958.667908 3928.532715,956.081116 
M4011.661377,998.067688 
	C4009.720703,987.851562 4003.503418,981.221069 3993.654053,978.828186 
	C3979.658936,975.427979 3965.417725,976.990540 3951.158447,976.979858 
	C3951.158447,995.055115 3951.158447,1011.873779 3951.158447,1028.837524 
	C3963.630615,1028.837524 3975.632568,1029.886597 3987.376221,1028.592529 
	C4005.176514,1026.630981 4011.926514,1017.801086 4011.661377,998.067688 
z"/>
<path fill="#050425" opacity="1.000000" stroke="none" 
	d="
M764.318237,1088.295410 
	C760.458984,1088.295288 757.494629,1088.295288 754.425720,1088.295288 
	C745.424438,1075.482178 736.640137,1062.977905 727.735046,1050.301636 
	C716.399719,1050.301636 705.165649,1050.301636 693.088013,1050.301636 
	C693.088013,1062.641113 693.088013,1074.832642 693.088013,1087.653564 
	C684.489075,1087.653564 676.722595,1087.653564 668.459473,1087.653564 
	C668.459473,1044.008301 668.459473,1000.556580 668.459473,955.939026 
	C672.819397,955.939026 677.035950,955.931824 681.252502,955.940247 
	C696.236084,955.970337 711.220154,955.939636 726.203003,956.062927 
	C735.977661,956.143372 745.428406,958.132812 754.181213,962.480652 
	C769.884766,970.280945 777.992249,983.069458 778.621582,1000.683472 
	C779.255432,1018.425598 773.130798,1032.553345 757.407532,1041.788330 
	C756.547668,1042.293335 755.646729,1042.727905 754.774963,1043.213379 
	C753.911621,1043.694092 753.060974,1044.197754 751.269531,1045.230591 
	C760.887146,1059.125122 770.411499,1072.885132 781.078247,1088.295410 
	C774.772888,1088.295410 769.993042,1088.295410 764.318237,1088.295410 
M725.883606,1029.383179 
	C728.830811,1028.879883 731.829590,1028.578125 734.716187,1027.838257 
	C746.891418,1024.718140 753.806335,1015.739197 753.853394,1003.211365 
	C753.900452,990.679016 747.142090,981.355469 734.817139,978.598633 
	C721.141846,975.539795 707.239929,977.016479 693.395386,976.900940 
	C693.395386,995.117126 693.395386,1012.139526 693.395386,1029.521118 
	C704.175964,1029.521118 714.131775,1029.521118 725.883606,1029.383179 
z"/>
<path fill="#0A0929" opacity="1.000000" stroke="none" 
	d="
M2565.874023,1010.791138 
	C2572.762207,1010.791138 2578.674316,1010.791138 2584.997314,1010.791138 
	C2584.997314,1018.121155 2584.997314,1024.286499 2584.997314,1031.262573 
	C2564.041260,1031.262573 2543.521484,1031.262573 2522.362549,1031.262573 
	C2522.362549,1043.527832 2522.362549,1055.001099 2522.362549,1067.317505 
	C2546.620361,1067.317505 2570.800049,1067.317505 2595.505615,1067.317505 
	C2595.505615,1074.325439 2595.505615,1080.529907 2595.505615,1086.829224 
	C2589.097412,1088.671509 2510.932861,1089.267944 2497.062500,1087.420166 
	C2497.062500,1044.005127 2497.062500,1000.518738 2497.062500,956.473633 
	C2528.919678,956.473633 2560.447998,956.473633 2592.720703,956.473633 
	C2592.720703,962.783569 2592.720703,969.240784 2592.720703,976.498779 
	C2569.601807,976.498779 2546.373779,976.498779 2522.431641,976.498779 
	C2522.431641,988.032837 2522.431641,998.811768 2522.431641,1010.791077 
	C2536.526123,1010.791077 2550.711914,1010.791077 2565.874023,1010.791138 
z"/>
<path fill="#070525" opacity="1.000000" stroke="none" 
	d="
M1837.994141,976.919556 
	C1825.384888,976.919495 1813.774292,976.919495 1801.405518,976.919495 
	C1801.405518,988.134338 1801.405518,998.612244 1801.405518,1010.329224 
	C1811.415527,1011.365295 1821.956299,1010.669678 1832.443359,1010.792358 
	C1842.740112,1010.912842 1853.039429,1010.818604 1863.986206,1010.818604 
	C1863.986206,1017.812378 1863.986206,1024.283081 1863.986206,1031.496338 
	C1843.156128,1031.496338 1822.617676,1031.496338 1801.365234,1031.496338 
	C1801.365234,1043.614258 1801.365234,1055.009521 1801.365234,1067.214111 
	C1825.791016,1067.214111 1850.015869,1067.214111 1874.961426,1067.214111 
	C1874.961426,1074.400391 1874.961426,1080.806274 1874.961426,1087.769043 
	C1842.358398,1087.769043 1809.835571,1087.769043 1776.641602,1087.769043 
	C1776.641602,1044.388916 1776.641602,1000.906311 1776.641602,956.677490 
	C1808.104614,956.677490 1839.899536,956.677490 1872.169189,956.677490 
	C1872.169189,962.991699 1872.169189,969.504150 1872.169189,976.919678 
	C1860.811890,976.919678 1849.902222,976.919678 1837.994141,976.919556 
z"/>
<path fill="#070526" opacity="1.000000" stroke="none" 
	d="
M2100.136230,1071.886719 
	C2100.136230,1032.987427 2100.136230,995.070496 2100.136230,956.544434 
	C2132.559326,956.544434 2164.319092,956.544434 2196.568359,956.544434 
	C2196.568359,963.002686 2196.568359,969.229553 2196.568359,976.652466 
	C2173.138184,976.652466 2149.702637,976.652466 2125.671387,976.652466 
	C2125.671387,988.324280 2125.671387,998.825378 2125.671387,1010.253418 
	C2146.052246,1010.253418 2166.552002,1010.253418 2188.307617,1010.253418 
	C2188.438232,1014.273865 2188.582764,1017.436279 2188.632324,1020.600281 
	C2188.684082,1023.881775 2188.643799,1027.164673 2188.643799,1031.295898 
	C2167.431885,1031.295898 2146.957764,1031.295898 2125.774414,1031.295898 
	C2125.774414,1043.552490 2125.774414,1054.975220 2125.774414,1067.293701 
	C2150.082764,1067.293701 2174.281494,1067.293701 2199.079834,1067.293701 
	C2199.079834,1074.334717 2199.079834,1080.514282 2199.079834,1086.781860 
	C2192.504150,1088.675293 2115.974854,1089.311890 2100.136230,1087.397461 
	C2100.136230,1082.664673 2100.136230,1077.766846 2100.136230,1071.886719 
z"/>
<path fill="#070525" opacity="1.000000" stroke="none" 
	d="
M4063.974609,1061.983521 
	C4063.974609,1026.390015 4063.974609,991.794739 4063.974609,956.568237 
	C4096.297363,956.568237 4128.058105,956.568237 4160.231445,956.568237 
	C4160.231445,962.967834 4160.231445,969.218323 4160.231445,976.663574 
	C4136.809570,976.663574 4113.382324,976.663574 4089.311523,976.663574 
	C4089.311523,988.327881 4089.311523,998.822388 4089.311523,1010.532959 
	C4109.851074,1010.532959 4130.656738,1010.532959 4151.896484,1010.532959 
	C4151.896484,1017.950745 4151.896484,1024.171143 4151.896484,1031.514526 
	C4131.002930,1031.514526 4110.187500,1031.514526 4089.065918,1031.514526 
	C4089.065918,1043.832520 4089.065918,1055.030396 4089.065918,1067.159058 
	C4113.633789,1067.159058 4137.807129,1067.159058 4162.702148,1067.159058 
	C4162.702148,1074.478271 4162.702148,1080.876831 4162.702148,1087.801270 
	C4130.038086,1087.801270 4097.554199,1087.801270 4063.974609,1087.801270 
	C4063.974609,1079.420654 4063.974609,1071.201172 4063.974609,1061.983521 
z"/>
<path fill="#080626" opacity="1.000000" stroke="none" 
	d="
M1949.366455,997.616211 
	C1970.700317,943.331970 2044.210815,944.400269 2069.713867,975.715820 
	C2067.380127,978.099915 2064.862061,980.527771 2062.515381,983.111450 
	C2060.277344,985.575745 2058.217773,988.202148 2055.747559,991.153992 
	C2052.733154,989.019714 2050.649658,987.592651 2048.616455,986.097107 
	C2035.769043,976.646729 2021.475586,973.810608 2006.031372,977.243469 
	C1982.013794,982.581970 1967.698120,1002.883606 1970.317383,1027.486328 
	C1972.765137,1050.477661 1991.224243,1067.388184 2014.762695,1068.202515 
	C2027.174316,1068.631958 2033.533447,1067.236816 2044.479492,1061.379150 
	C2044.479492,1048.405151 2044.479492,1034.884277 2044.479492,1020.814758 
	C2052.576416,1020.814758 2059.728760,1020.814758 2067.547607,1020.814758 
	C2067.547607,1038.342407 2067.547607,1055.837891 2067.547607,1073.498779 
	C2047.772217,1091.406860 2001.894775,1098.576538 1972.507568,1076.895264 
	C1949.186279,1059.689209 1941.639526,1034.827026 1946.817749,1005.994568 
	C1947.284912,1003.392944 1948.301270,1000.889893 1949.366455,997.616211 
z"/>
<path fill="#080626" opacity="1.000000" stroke="none" 
	d="
M2990.031494,1007.922302 
	C2997.957520,990.279846 3005.633545,973.350647 3013.372314,956.283325 
	C3021.679688,956.283325 3029.583740,956.283325 3038.008057,956.283325 
	C3057.689209,999.895996 3077.358154,1043.482178 3097.389893,1087.872070 
	C3088.320801,1087.872070 3080.423096,1087.872070 3071.552490,1087.872070 
	C3067.336182,1078.429199 3062.905518,1068.505859 3058.341797,1058.284058 
	C3036.564209,1058.284058 3014.997559,1058.284058 2992.623291,1058.284058 
	C2988.380127,1067.918579 2983.990967,1077.885132 2979.528076,1088.018799 
	C2971.384033,1088.018799 2963.430664,1088.018799 2954.050293,1088.018799 
	C2966.169189,1061.094727 2977.975342,1034.865112 2990.031494,1007.922302 
M3041.869629,1019.064087 
	C3036.590576,1006.959106 3031.311523,994.854126 3025.378418,981.249084 
	C3016.964844,1001.006775 3009.254150,1019.113464 3001.396973,1037.564453 
	C3018.008789,1037.564453 3033.445557,1037.564453 3049.733154,1037.564453 
	C3047.069092,1031.374390 3044.728271,1025.936035 3041.869629,1019.064087 
z"/>
<path fill="#080626" opacity="1.000000" stroke="none" 
	d="
M281.452942,955.927856 
	C284.643799,956.045532 286.945496,956.163391 289.518646,956.295105 
	C309.194763,999.903259 328.824219,1043.407959 348.846710,1087.783813 
	C339.549530,1087.783813 331.415039,1087.783813 322.905243,1087.783813 
	C318.653839,1078.125610 314.395447,1068.451416 309.955566,1058.364990 
	C288.053711,1058.364990 266.253326,1058.364990 243.989136,1058.364990 
	C239.800873,1068.019775 235.580353,1077.748901 231.188599,1087.872681 
	C223.070358,1087.872681 214.868103,1087.872681 205.598495,1087.872681 
	C225.448807,1043.737061 245.020737,1000.220337 264.941528,955.927979 
	C270.028839,955.927979 275.296326,955.927979 281.452942,955.927856 
M286.590393,1038.099121 
	C291.139587,1038.099121 295.688782,1038.099121 301.517792,1038.099121 
	C293.200897,1018.833923 285.387360,1000.734802 276.946564,981.182678 
	C268.554199,1000.830017 260.797089,1018.990173 252.634735,1038.099121 
	C264.193481,1038.099121 274.449402,1038.099121 286.590393,1038.099121 
z"/>
<path fill="#070626" opacity="1.000000" stroke="none" 
	d="
M900.882874,1079.484131 
	C897.627136,1072.081299 894.747131,1065.371826 891.714722,1058.307251 
	C870.050171,1058.307251 848.523376,1058.307251 825.838928,1058.307251 
	C821.739624,1067.620605 817.374451,1077.538086 812.847107,1087.823975 
	C804.740601,1087.823975 796.609863,1087.823975 787.320435,1087.823975 
	C807.274658,1043.462891 826.854370,999.934265 846.508545,956.240234 
	C854.688843,956.240234 862.618713,956.240234 871.172607,956.240234 
	C890.776062,999.652039 910.409119,1043.129150 930.476135,1087.567383 
	C921.554993,1087.567383 913.513855,1087.567383 904.668884,1087.567383 
	C903.698975,1085.465698 902.478821,1082.821655 900.882874,1079.484131 
M857.948364,983.786743 
	C850.154602,1001.562256 842.360840,1019.337769 834.425110,1037.437134 
	C851.180481,1037.437134 866.540771,1037.437134 883.130676,1037.437134 
	C874.804810,1018.596924 866.923889,1000.763733 857.948364,983.786743 
z"/>
<path fill="#080727" opacity="1.000000" stroke="none" 
	d="
M4452.909668,989.075317 
	C4455.091797,974.938232 4462.870605,966.032593 4474.658203,960.225769 
	C4497.230469,949.106323 4534.915039,954.059448 4549.960449,966.399109 
	C4547.636719,972.145630 4545.209473,978.149048 4543.086426,983.400513 
	C4531.748535,980.462524 4521.393555,976.734070 4510.737305,975.379578 
	C4503.450195,974.453369 4495.551758,976.095459 4488.279297,977.961365 
	C4481.748535,979.636902 4477.801758,984.723328 4477.512207,991.982056 
	C4477.224609,999.183167 4481.728027,1003.175537 4487.474609,1005.472412 
	C4494.232422,1008.173340 4501.393555,1009.870483 4508.390137,1011.967224 
	C4516.658203,1014.444702 4525.132812,1016.373535 4533.166992,1019.455750 
	C4546.267578,1024.481445 4554.950195,1033.620117 4555.611816,1048.359253 
	C4556.283691,1063.317261 4549.976074,1074.739258 4536.908203,1082.255493 
	C4521.673828,1091.017944 4505.024414,1091.446533 4488.372070,1089.281738 
	C4479.590332,1088.139893 4470.979492,1085.024902 4462.558105,1082.045532 
	C4458.049805,1080.450317 4454.108398,1077.253418 4449.583496,1074.586304 
	C4452.714844,1067.709473 4455.425293,1061.757324 4458.368164,1055.294556 
	C4469.699219,1062.804565 4481.260254,1067.921143 4494.010742,1068.911499 
	C4501.533691,1069.495972 4509.282715,1068.819336 4516.759277,1067.632812 
	C4520.413574,1067.052979 4524.216797,1064.587891 4527.005859,1061.968018 
	C4533.005371,1056.333374 4532.663574,1047.789307 4526.094727,1042.850830 
	C4522.213867,1039.932861 4517.440430,1037.895752 4512.767578,1036.405151 
	C4504.861816,1033.883301 4496.699219,1032.178467 4488.682617,1029.989258 
	C4484.840332,1028.939941 4481.039551,1027.695312 4477.300293,1026.321289 
	C4459.239746,1019.684692 4452.391113,1009.470703 4452.909668,989.075317 
z"/>
<path fill="#070626" opacity="1.000000" stroke="none" 
	d="
M2646.406250,994.774841 
	C2638.843994,1006.187561 2636.474121,1018.107605 2638.743164,1030.692993 
	C2645.804688,1069.860840 2689.905762,1076.824829 2712.714111,1059.557739 
	C2715.321777,1057.583618 2717.814941,1055.458130 2720.739258,1053.097290 
	C2726.030762,1058.102661 2731.023193,1062.825195 2735.920898,1067.458008 
	C2718.420410,1093.054810 2665.347900,1100.197632 2634.830322,1072.605835 
	C2606.375000,1046.878662 2605.530518,1000.019531 2633.076416,973.473694 
	C2663.531982,944.124573 2716.439209,950.346558 2736.043945,976.619141 
	C2731.209717,981.231323 2726.272217,985.942200 2720.659668,991.297119 
	C2708.406738,979.208923 2693.868408,973.880859 2677.017578,976.444641 
	C2664.698486,978.318909 2654.418457,984.052490 2646.406250,994.774841 
z"/>
<path fill="#080626" opacity="1.000000" stroke="none" 
	d="
M3864.477783,955.335571 
	C3879.868164,958.020752 3892.293213,964.316956 3902.760010,976.434631 
	C3897.574463,981.337280 3892.601807,986.038452 3887.065918,991.272156 
	C3874.759277,979.213989 3860.237061,973.865356 3843.402344,976.452881 
	C3831.868652,978.225586 3821.914795,983.313110 3814.462158,992.605896 
	C3800.029297,1010.601990 3801.279541,1038.718506 3817.205078,1054.871338 
	C3835.112549,1073.034180 3862.383789,1072.594360 3887.109863,1053.283447 
	C3889.632080,1055.571289 3892.261475,1057.961182 3894.896240,1060.344971 
	C3897.351562,1062.566284 3899.812744,1064.781006 3902.848145,1067.519043 
	C3900.447266,1070.151733 3898.698730,1072.459961 3896.572510,1074.341064 
	C3869.638916,1098.168457 3814.030029,1097.087280 3790.008789,1059.449951 
	C3765.723877,1021.399963 3782.404785,959.342407 3844.749512,954.257874 
	C3850.976562,953.750000 3857.332275,954.819458 3864.477783,955.335571 
z"/>
<path fill="#080626" opacity="1.000000" stroke="none" 
	d="
M3404.065918,954.073364 
	C3424.794434,954.321228 3442.161621,960.349915 3456.825195,976.236084 
	C3451.530273,981.272400 3446.389160,986.162109 3441.314209,990.989014 
	C3414.916992,971.183777 3387.795166,971.202026 3370.076904,990.667236 
	C3354.438965,1007.847046 3354.459717,1036.587402 3370.122070,1053.724609 
	C3387.713623,1072.972778 3414.410400,1072.935913 3441.391113,1053.269531 
	C3446.301514,1057.943359 3451.289307,1062.691040 3456.547363,1067.695801 
	C3449.812012,1076.854126 3441.046875,1082.100830 3431.341064,1085.590454 
	C3413.524658,1091.996338 3395.372803,1092.157227 3377.545410,1085.803589 
	C3353.006104,1077.057861 3330.793457,1053.881104 3333.728760,1015.147705 
	C3335.874512,986.834656 3357.430908,962.122192 3386.336670,956.085632 
	C3391.837158,954.936890 3397.532227,954.719849 3404.065918,954.073364 
z"/>
<path fill="#080727" opacity="1.000000" stroke="none" 
	d="
M3262.049072,955.924316 
	C3266.463623,955.924194 3269.995117,955.924194 3274.854492,955.924194 
	C3272.386230,960.297119 3270.714844,963.443787 3268.874756,966.488525 
	C3255.442383,988.716614 3242.134521,1011.022644 3228.415771,1033.072998 
	C3224.720947,1039.011719 3223.110840,1044.920410 3223.344238,1051.857300 
	C3223.734863,1063.473877 3223.450684,1075.113037 3223.450684,1087.929077 
	C3219.206543,1088.065063 3215.373291,1088.237549 3211.538330,1088.296997 
	C3207.555176,1088.358643 3203.570312,1088.310791 3198.297852,1088.310791 
	C3198.297852,1078.687134 3197.663086,1069.414062 3198.451172,1060.263672 
	C3199.562256,1047.365845 3195.911865,1036.534424 3188.850586,1025.731812 
	C3175.923096,1005.955627 3164.196777,985.394165 3151.990479,965.147522 
	C3150.483643,962.648132 3149.104004,960.071960 3147.136963,956.598022 
	C3156.241455,956.598022 3164.335693,956.598022 3173.455811,956.598022 
	C3185.554443,976.655457 3198.072510,997.408447 3211.434082,1019.559937 
	C3218.917236,1009.072266 3224.647217,998.445679 3230.975586,988.234863 
	C3237.462646,977.768860 3243.791260,967.204773 3250.650879,955.924377 
	C3253.994385,955.924377 3257.580078,955.924377 3262.049072,955.924316 
z"/>
<path fill="#040223" opacity="1.000000" stroke="none" 
	d="
M4198.022949,955.946533 
	C4227.593750,955.946533 4256.169434,955.946533 4285.292969,955.946533 
	C4285.292969,962.855042 4285.292969,969.045837 4285.292969,976.317322 
	C4271.456543,977.826294 4257.238770,976.112305 4242.346680,977.379700 
	C4242.346680,1013.968750 4242.346680,1050.460571 4242.346680,1087.615967 
	C4233.775879,1087.615967 4226.029785,1087.615967 4217.345703,1087.615967 
	C4217.345703,1050.979980 4217.345703,1014.514648 4217.345703,977.156311 
	C4202.601562,977.156311 4188.734863,977.156311 4174.273438,977.156311 
	C4174.273438,969.826721 4174.273438,963.388000 4174.273438,955.946533 
	C4181.889160,955.946533 4189.458496,955.946533 4198.022949,955.946533 
z"/>
<path fill="#030222" opacity="1.000000" stroke="none" 
	d="
M2387.911621,976.881104 
	C2380.324463,976.881104 2373.716309,976.881104 2366.556152,976.881104 
	C2366.556152,969.744934 2366.556152,963.302063 2366.556152,956.400024 
	C2403.689453,956.400024 2440.464355,956.400024 2477.791504,956.400024 
	C2477.791504,963.052917 2477.791504,969.496948 2477.791504,976.786011 
	C2463.696289,976.786011 2449.872803,976.786011 2435.216797,976.786011 
	C2435.216797,1014.029358 2435.216797,1050.457764 2435.216797,1087.583008 
	C2426.602783,1087.583008 2418.816162,1087.583008 2410.196777,1087.583008 
	C2410.196777,1051.304565 2410.196777,1014.853394 2410.196777,977.276001 
	C2402.577637,977.134766 2395.734131,977.007874 2387.911621,976.881104 
z"/>
<path fill="#030222" opacity="1.000000" stroke="none" 
	d="
M1015.936035,955.949951 
	C1022.875977,955.949951 1028.827881,955.949951 1035.387573,955.949951 
	C1035.387573,962.966980 1035.387573,969.402100 1035.387573,976.726562 
	C1021.293335,976.726562 1007.440552,976.726562 992.699646,976.726562 
	C992.699646,1014.020630 992.699646,1050.459839 992.699646,1088.283325 
	C987.995361,1088.283325 984.149353,1088.283203 980.303345,1088.283203 
	C976.379333,1088.283203 972.455322,1088.283325 967.730835,1088.283325 
	C967.730835,1051.023193 967.730835,1014.541992 967.730835,977.290222 
	C953.023560,977.290222 939.124146,977.290222 924.527527,977.290222 
	C924.527527,970.070496 924.527527,963.614319 924.527527,955.949951 
	C954.561951,955.949951 984.755005,955.949951 1015.936035,955.949951 
z"/>
<path fill="#040424" opacity="1.000000" stroke="none" 
	d="
M124.145294,1088.291504 
	C119.214249,1088.291504 115.265480,1088.291504 110.735466,1088.291504 
	C110.735466,1044.209961 110.735466,1000.755554 110.735466,956.620605 
	C118.460747,956.620605 126.240761,956.620605 134.917618,956.620605 
	C134.917618,993.182129 134.917618,1029.707886 134.917618,1067.337891 
	C158.206116,1067.337891 180.639709,1067.337891 203.536682,1067.337891 
	C203.536682,1074.618408 203.536682,1080.803467 203.536682,1088.291504 
	C177.486374,1088.291504 151.306976,1088.291504 124.145294,1088.291504 
z"/>
<path fill="#0D0C2C" opacity="1.000000" stroke="none" 
	d="
M2935.229980,956.163879 
	C2936.584229,958.577393 2937.419434,960.770996 2937.423828,962.966125 
	C2937.501953,1002.840942 2937.484619,1042.716064 2937.462158,1082.591064 
	C2937.461182,1084.184204 2937.205566,1085.777100 2937.029053,1087.831421 
	C2928.780762,1087.831421 2920.996338,1087.831421 2912.739746,1087.831421 
	C2912.739746,1044.028198 2912.739746,1000.642029 2912.739746,955.944702 
	C2919.980957,955.944702 2927.152832,955.944702 2935.229980,956.163879 
z"/>
<path fill="#0D0C2C" opacity="1.000000" stroke="none" 
	d="
M1348.899902,1029.999512 
	C1348.900024,1005.050232 1348.900024,981.101135 1348.900024,956.529907 
	C1357.380005,956.529907 1365.156494,956.529907 1373.505127,956.529907 
	C1373.505127,1000.104187 1373.505127,1043.586914 1373.505127,1087.704346 
	C1365.671387,1087.704346 1357.844604,1087.704346 1348.899902,1087.704346 
	C1348.899902,1068.817993 1348.899902,1049.908813 1348.899902,1029.999512 
z"/>
<path fill="#FEFEFE" opacity="1.000000" stroke="none" 
	d="
M2054.624023,479.169434 
	C2101.055664,498.073975 2125.051514,533.176758 2131.909668,580.953369 
	C2135.170166,603.667419 2133.282227,626.147461 2126.117920,648.042664 
	C2108.063965,703.217651 2056.347656,736.110657 1998.438721,730.765137 
	C1938.985229,725.277039 1897.343140,680.209961 1889.608154,625.556030 
	C1886.290039,602.109680 1887.273560,579.018799 1894.303345,556.391479 
	C1910.685425,503.661774 1957.278931,470.485229 2012.824585,471.553436 
	C2026.936035,471.824799 2040.620972,474.141998 2054.624023,479.169434 
z"/>
<path fill="#F7F9FA" opacity="1.000000" stroke="none" 
	d="
M429.215332,1030.868042 
	C435.675171,1031.809937 441.440216,1032.087280 446.719086,1033.833984 
	C454.851318,1036.524780 458.359436,1042.388916 458.099243,1050.595703 
	C457.847839,1058.525879 453.755585,1063.658325 446.411163,1066.231934 
	C443.924622,1067.103271 441.286896,1068.044312 438.708893,1068.071655 
	C422.835571,1068.240112 406.959595,1068.156250 390.625000,1068.156250 
	C390.625000,1055.954590 390.625000,1044.070190 390.625000,1030.861694 
	C403.186127,1030.861694 415.744415,1030.861694 429.215332,1030.868042 
z"/>
<path fill="#F8F8F9" opacity="1.000000" stroke="none" 
	d="
M390.158112,997.825073 
	C390.158112,990.254028 390.158112,983.651672 390.158112,976.249695 
	C393.447083,976.000122 396.281067,975.606506 399.115662,975.602234 
	C409.077087,975.587036 419.049774,975.454407 428.995087,975.892029 
	C433.216064,976.077698 437.599152,977.017090 441.519867,978.585510 
	C447.955383,981.159973 451.284637,986.481201 451.338440,993.424744 
	C451.392029,1000.339783 448.352997,1005.746033 441.781830,1008.342041 
	C437.825470,1009.904907 433.537720,1011.347961 429.354767,1011.483582 
	C416.784424,1011.891052 404.192444,1011.630432 390.158112,1011.630432 
	C390.158112,1007.130371 390.158112,1002.962158 390.158112,997.825073 
z"/>
<path fill="#FBFBFC" opacity="1.000000" stroke="none" 
	d="
M1709.234497,1057.446777 
	C1701.475342,1063.070312 1693.431152,1066.361938 1684.654541,1066.674072 
	C1671.803711,1067.130981 1658.924561,1066.791626 1645.552002,1066.791626 
	C1645.552002,1037.089233 1645.552002,1007.660278 1645.552002,977.084412 
	C1661.685303,977.139648 1677.557129,975.286926 1693.133545,979.211182 
	C1708.841919,983.168762 1719.750854,993.069275 1723.566284,1008.985596 
	C1727.950806,1027.276367 1724.905029,1044.008301 1709.234497,1057.446777 
z"/>
<path fill="#FCFCFD" opacity="1.000000" stroke="none" 
	d="
M4410.053711,1018.492065 
	C4409.944336,1044.466187 4397.818848,1061.421875 4376.038574,1067.002075 
	C4355.137207,1072.357056 4333.809082,1063.692993 4323.666504,1045.727051 
	C4313.355957,1027.463867 4316.625977,1002.818970 4331.244629,988.610291 
	C4345.856934,974.408020 4370.791504,971.598999 4388.529785,982.430725 
	C4401.628906,990.429565 4408.480469,1002.446899 4410.053711,1018.492065 
z"/>
<path fill="#FCFCFD" opacity="1.000000" stroke="none" 
	d="
M2246.969482,1044.537842 
	C2240.941895,1031.918213 2240.081299,1019.554626 2244.024658,1006.996826 
	C2250.646484,985.910156 2270.644775,973.678040 2293.970703,976.182495 
	C2315.371338,978.480225 2331.983154,995.407959 2333.915039,1016.886292 
	C2335.945312,1039.456421 2324.228760,1059.116455 2304.248047,1065.751587 
	C2283.009766,1072.804199 2258.229736,1065.976318 2246.969482,1044.537842 
z"/>
<path fill="#FCFCFD" opacity="1.000000" stroke="none" 
	d="
M1070.682129,1005.358521 
	C1080.016846,981.038818 1105.409180,970.839905 1129.430664,978.220642 
	C1150.530762,984.703796 1162.809692,1005.503052 1159.920166,1029.321167 
	C1157.343994,1050.557739 1139.756714,1066.632446 1118.338989,1068.222290 
	C1081.761353,1070.937744 1060.043213,1038.340088 1070.682129,1005.358521 
z"/>
<path fill="#FBFCFC" opacity="1.000000" stroke="none" 
	d="
M525.128723,1028.738281 
	C522.320496,1006.032288 534.157898,982.585754 560.792725,976.820496 
	C585.509155,971.470459 609.896240,986.043457 615.723572,1009.682556 
	C622.221069,1036.040161 608.178711,1061.218628 582.803162,1066.944824 
	C549.703613,1074.413940 527.861084,1052.710327 525.128723,1028.738281 
z"/>
<path fill="#FBFCFC" opacity="1.000000" stroke="none" 
	d="
M1426.943848,1007.595093 
	C1432.962158,987.822266 1452.197876,972.188721 1479.272949,976.562012 
	C1507.027954,981.045105 1518.641724,1004.003540 1517.330566,1024.960571 
	C1515.743652,1050.326050 1497.363159,1067.796143 1472.699707,1068.250488 
	C1442.186890,1068.812744 1421.263062,1045.327271 1425.465332,1015.212708 
	C1425.786621,1012.910156 1426.247925,1010.627197 1426.943848,1007.595093 
z"/>
<path fill="#FBFCFC" opacity="1.000000" stroke="none" 
	d="
M3492.663086,1020.361572 
	C3493.513428,1015.305786 3493.921631,1010.941833 3495.229492,1006.866516 
	C3502.420654,984.458618 3525.511963,971.693176 3549.161377,976.837097 
	C3572.307861,981.871765 3587.449951,1002.469482 3585.265625,1025.949097 
	C3583.178467,1048.388672 3567.642334,1065.263916 3546.620117,1067.925659 
	C3522.582275,1070.968872 3502.289551,1059.236694 3495.401123,1037.808228 
	C3493.700684,1032.518066 3493.517090,1026.740356 3492.663086,1020.361572 
z"/>
<path fill="#F8F8F9" opacity="1.000000" stroke="none" 
	d="
M1235.985718,992.200134 
	C1235.985718,986.920959 1235.985718,982.609497 1235.985718,976.975525 
	C1250.621826,977.078308 1264.857422,975.326538 1278.822144,978.903259 
	C1291.178955,982.068054 1297.481567,991.469543 1296.987427,1004.202698 
	C1296.514404,1016.391663 1289.744019,1025.068237 1277.811279,1027.823730 
	C1264.387329,1030.923584 1250.762085,1029.400635 1235.985718,1029.366455 
	C1235.985718,1016.914368 1235.985718,1005.041138 1235.985718,992.200134 
z"/>
<path fill="#F5F6F7" opacity="1.000000" stroke="none" 
	d="
M4011.748535,998.889282 
	C4011.926514,1017.801086 4005.176514,1026.630981 3987.376221,1028.592529 
	C3975.632568,1029.886597 3963.630615,1028.837524 3951.158447,1028.837524 
	C3951.158447,1011.873779 3951.158447,995.055115 3951.158447,976.979858 
	C3965.417725,976.990540 3979.658936,975.427979 3993.654053,978.828186 
	C4003.503418,981.221069 4009.720703,987.851562 4011.748535,998.889282 
z"/>
<path fill="#F5F6F7" opacity="1.000000" stroke="none" 
	d="
M724.985596,1029.452148 
	C714.131775,1029.521118 704.175964,1029.521118 693.395386,1029.521118 
	C693.395386,1012.139526 693.395386,995.117126 693.395386,976.900940 
	C707.239929,977.016479 721.141846,975.539795 734.817139,978.598633 
	C747.142090,981.355469 753.900452,990.679016 753.853394,1003.211365 
	C753.806335,1015.739197 746.891418,1024.718140 734.716187,1027.838257 
	C731.829590,1028.578125 728.830811,1028.879883 724.985596,1029.452148 
z"/>
<path fill="#F7F9FA" opacity="1.000000" stroke="none" 
	d="
M3042.128662,1019.780823 
	C3044.728271,1025.936035 3047.069092,1031.374390 3049.733154,1037.564453 
	C3033.445557,1037.564453 3018.008789,1037.564453 3001.396973,1037.564453 
	C3009.254150,1019.113464 3016.964844,1001.006775 3025.378418,981.249084 
	C3031.311523,994.854126 3036.590576,1006.959106 3042.128662,1019.780823 
z"/>
<path fill="#F7F9FA" opacity="1.000000" stroke="none" 
	d="
M285.647858,1038.099121 
	C274.449402,1038.099121 264.193481,1038.099121 252.634735,1038.099121 
	C260.797089,1018.990173 268.554199,1000.830017 276.946564,981.182678 
	C285.387360,1000.734802 293.200897,1018.833923 301.517792,1038.099121 
	C295.688782,1038.099121 291.139587,1038.099121 285.647858,1038.099121 
z"/>
<path fill="#F7F9FA" opacity="1.000000" stroke="none" 
	d="
M858.495728,983.358643 
	C866.923889,1000.763733 874.804810,1018.596924 883.130676,1037.437134 
	C866.540771,1037.437134 851.180481,1037.437134 834.425110,1037.437134 
	C842.360840,1019.337769 850.154602,1001.562256 858.495728,983.358643 
z"/>
</svg>