<svg id="Capa_1" data-name="Capa 1" xmlns="http://www.w3.org/2000/svg" xmlns:xlink="http://www.w3.org/1999/xlink" viewBox="0 0 986 1080"><defs><style>.cls-1{fill:none;}.cls-2{clip-path:url(#clip-path);}.cls-3{clip-path:url(#clip-path-2);}.cls-4{fill:#0a95a5;}.cls-5{fill:#ffffa5;}.cls-6{fill:#bcf270;}.cls-7{fill:#29d9c2;}.cls-8{fill:#00a2a5;}.cls-9{fill:#2f2a33;}.cls-10{fill:#fff;}</style><clipPath id="clip-path"><circle class="cls-1" cx="486.5" cy="545.5" r="444.5"/></clipPath><clipPath id="clip-path-2"><circle class="cls-1" cx="488.8" cy="541.65" r="440.2"/></clipPath></defs><title>Logo ingeocimyc 2</title><g class="cls-2"><g class="cls-3"><circle class="cls-4" cx="488.8" cy="541.65" r="440.2"/><path class="cls-5" d="M-.46,401.34s208-60,456,84,520-96,520-96v528H-.46Z"/><path class="cls-6" d="M-.46,473.63s208-60,456,84,520-96,520-96v528H-.46Z"/><path class="cls-7" d="M-.46,553.67s208-60,456,84,520-96,520-96v528H-.46Z"/><path class="cls-8" d="M-.46,623.38s208-60,456,84,520-96,520-96v528H-.46Z"/><path class="cls-9" d="M-.46,700.83s208-60,456,84,520-96,520-96v528H-.46Z"/></g><path class="cls-10" d="M471,825.77s23.88,47.76,59.7,0,71.65-89.56,71.65-89.56,35.82-29.85,0-47.76-195.49-92.64-195.49-92.64v-41.9L656.08,670.54s53.74,0,17.91-41.79l-35.82-17.91V551.13L406.86,453V416.77L662.05,527.25s35.82-11.94,11.94-41.79l-35.82-17.91V407.84L405,310.11l1.91-47.62L662.05,378s29.85-6,11.94-35.82l-35.82-17.91V258.58l-231.31-97v-41.9L662.05,228.73s29.85-6,11.94-41.79L638.17,175V115.29L405,18.69s-35.45-10.86-35.45,13V55.59L333.68,43.65s-35.82,11.94-6,35.82l41.06,17.31-1.91,110.47-33.18-14.34s-29.85,17.91-6,35.82l39.15,18.52V350.11L333.68,336.2s-29.85,17.91-6,41.79l39.15,17.83L363.53,497.4l-35.82-11.94s-29.85,11.94-6,35.82l41.79,23.88V700.39Z"/></g></svg>